<svg width="45" height="50" viewBox="0 0 45 50" fill="none" xmlns="http://www.w3.org/2000/svg">
<path d="M5 50H40C42.7575 50 45 47.7575 45 45V17.5C45 16.837 44.7366 16.2011 44.2678 15.7322C43.7989 15.2634 43.163 15 42.5 15H35V12.5C35 5.6075 29.3925 0 22.5 0C15.6075 0 10 5.6075 10 12.5V15H2.5C1.83696 15 1.20107 15.2634 0.732233 15.7322C0.263392 16.2011 0 16.837 0 17.5V45C0 47.7575 2.2425 50 5 50ZM15 12.5C15 8.365 18.365 5 22.5 5C26.635 5 30 8.365 30 12.5V15H15V12.5ZM5 20H10V22.5C10 23.8807 11.1193 25 12.5 25C13.8807 25 15 23.8807 15 22.5V20H30V22.5C30 23.8807 31.1193 25 32.5 25C33.8807 25 35 23.8807 35 22.5V20H40L40.005 45H5V20Z" fill="#656565"/>
</svg>
