<svg width="711" height="391" viewBox="0 0 711 391" fill="none" xmlns="http://www.w3.org/2000/svg">
<path opacity="0.1" d="M302.03 390.849C180.801 389.713 22.9603 378.352 22.1467 363.016C22.1467 347.68 249.959 342 302.03 342C354.101 342 625.035 345.408 622.594 363.016C620.153 380.624 423.258 391.985 302.03 390.849Z" fill="black"/>
<path d="M544.914 256H56.1467V188.082C56.1467 126.788 108.515 77 172.985 77H428.308C492.779 77 545.147 126.788 545.147 188.082V235.657L544.914 256Z" fill="#044F5B"/>
<path d="M564.299 357.035C564.534 360.565 561.735 363.557 558.197 363.557C555.294 363.557 552.791 361.516 552.207 358.672L536.147 280.455H559.194L564.299 357.035Z" fill="#656565"/>
<path d="M44.5621 357.035C44.3268 360.565 47.1263 363.557 50.6637 363.557C53.5669 363.557 56.07 361.516 56.6539 358.672L72.7144 280.455H49.6675L44.5621 357.035Z" fill="#656565"/>
<path opacity="0.5" d="M599.482 302.956H520.147V184.035C520.147 165.863 534.994 151.016 553.166 151.016H566.462C584.634 151.016 599.482 165.863 599.482 184.035V302.956Z" fill="white"/>
<path d="M609.042 295.466C609.042 309.273 597.849 320.466 584.042 320.466H528.998V175.123C528.998 161.502 543.978 150.373 562.312 150.373H575.727C594.061 150.373 609.042 161.502 609.042 175.123V295.466Z" fill="#10727D"/>
<path opacity="0.5" d="M88.1993 306.291H8.8645V184.035C8.8645 165.863 23.7121 151.016 41.8837 151.016H55.1801C73.3517 151.016 88.1993 165.863 88.1993 184.035V306.291Z" fill="white"/>
<path d="M80.0436 320.466H25C11.1929 320.466 0 309.273 0 295.466V175.265C0 161.491 14.9802 150.373 33.3142 150.373H46.7294C65.0634 150.373 80.0436 161.491 80.0436 175.099V320.466Z" fill="#10727D"/>
<path d="M532.147 269H77.1467V320H532.147V269Z" fill="#044F5B"/>
<path d="M519.147 235H86.1467C80.0716 235 75.1467 239.925 75.1467 246V269H530.147V246C530.147 239.925 525.222 235 519.147 235Z" fill="#10727D"/>
<path d="M673.04 386.136C689.466 386.136 702.782 383.419 702.782 380.068C702.782 376.717 689.466 374 673.04 374C656.615 374 643.299 376.717 643.299 380.068C643.299 383.419 656.615 386.136 673.04 386.136Z" fill="black" fill-opacity="0.1"/>
<path d="M670.759 325.263H663.426C663.426 325.263 626.921 250.218 636.862 238.647C649.655 223.736 666.196 266.351 670.759 325.263Z" fill="#044F5B"/>
<path d="M668.478 325.263H667.255L644.114 249.321C644.033 248.996 644.196 248.67 644.522 248.588C644.848 248.507 645.174 248.67 645.255 248.996L668.478 325.263Z" fill="#002E3C"/>
<path d="M675.159 325.263H682.493C682.493 325.263 718.997 250.218 709.056 238.647C696.345 223.736 679.722 266.351 675.159 325.263Z" fill="#044F5B"/>
<path d="M677.441 325.263H678.663L701.885 249.321C701.967 248.996 701.804 248.67 701.478 248.588C701.152 248.507 700.826 248.67 700.745 248.996L677.441 325.263Z" fill="#002E3C"/>
<path d="M677.278 325.263H670.759C656.418 256.248 662.122 198.476 676.707 209.314C691.293 220.151 677.278 325.263 677.278 325.263Z" fill="#044F5B"/>
<path d="M673.529 223.329L672.714 325.263H671.574L672.389 223.329C672.389 223.003 672.633 222.758 672.959 222.758C673.203 222.758 673.529 223.084 673.529 223.329Z" fill="#002E3C"/>
<path d="M701.152 324.53L700.091 328.568L699.846 329.309L698.867 332.935L698.622 333.677L689.075 369.936L688.831 370.677L687.851 374.303L687.607 375.045L686.301 379.825C677.08 380.978 668.023 381.143 659.047 379.825L657.741 375.045L657.497 374.303L656.517 370.677L656.273 369.936L646.644 333.759L646.399 333.018L645.42 329.392L645.175 328.65L644.114 324.612H701.152V324.53Z" fill="#F14F4F"/>
<path d="M700.337 329.256L700.172 329.989H645.094L644.929 329.256H700.337Z" fill="#DF9188"/>
<path d="M699.179 333.575L698.931 334.39H646.335L646.087 333.575H699.179Z" fill="#DF9188"/>
<path d="M689.173 370.16L688.925 370.893H656.342L656.094 370.16H689.173Z" fill="#DF9188"/>
<path d="M687.932 374.479L687.767 375.293H657.499L657.334 374.479H687.932Z" fill="#DF9188"/>
<path d="M392.259 258.975L392.381 258.729C392.627 258.115 392.873 257.502 393.119 256.888C393.364 256.274 393.61 255.538 393.979 254.924L394.102 254.678L394.348 254.555C406.022 251.118 419.539 247.067 432.688 243.261C438.464 241.543 444.363 239.824 450.015 238.228C455.3 230.249 462.796 224.111 471.644 220.428L477.419 218.096L448.664 197.963L380.953 232.95C368.91 239.21 362.766 252.837 366.206 265.972L388.941 353.991L413.272 352.273C410.814 321.705 403.687 290.401 392.259 259.098V258.975Z" fill="#454F6B"/>
<path d="M432.688 243.384C419.539 247.19 406.022 251.118 394.348 254.678L394.102 254.801L393.979 255.046C393.733 255.66 393.487 256.274 393.119 257.011C392.873 257.624 392.627 258.238 392.381 258.852L392.259 259.097L392.381 259.343C403.81 290.647 410.937 321.951 413.395 352.518L414.501 352.395C412.043 321.828 404.916 290.401 393.487 259.097C393.733 258.606 393.979 257.993 394.225 257.379C394.471 256.765 394.716 256.274 394.962 255.783C406.636 252.346 420.031 248.417 433.057 244.612C445.714 240.929 458.618 237.123 470.046 233.809L470.66 232.458C458.986 235.65 445.592 239.579 432.688 243.384Z" fill="#797C99"/>
<path d="M389.064 354.114L365.961 368.109L358.219 366.636C356.621 366.39 355.147 367.618 355.147 369.214C355.147 372.651 358.219 375.229 361.537 374.861L366.084 374.247L369.77 375.106C374.686 376.334 379.847 376.088 384.64 374.492L396.437 370.564L406.882 372.283C408.725 372.651 410.692 372.037 412.166 370.809C414.624 368.722 415.116 365.285 413.518 362.584L407.742 352.764L389.064 354.114Z" fill="#F5BE86"/>
<path d="M407.742 352.764L389.063 354.114L410.446 357.306L407.742 352.764Z" fill="#BB7C4F"/>
<path d="M446.82 243.875C447.558 242.402 448.295 241.052 449.032 239.701C443.625 241.297 438.218 242.893 432.811 244.489C419.785 248.294 406.391 252.223 394.716 255.66C394.471 256.151 394.225 256.765 393.979 257.256C393.733 257.87 393.487 258.361 393.242 258.975C404.67 290.278 411.798 321.705 414.255 352.272H413.395L419.171 351.904L410.692 302.063C408.234 287.823 403.933 273.951 397.911 260.816L464.148 244.734L443.748 249.645L446.82 243.875Z" fill="#454F6B"/>
<path d="M450.016 238.351C457.143 236.264 464.148 234.177 470.538 232.336L477.419 218.341L471.644 220.674C462.796 224.111 455.177 230.372 450.016 238.351Z" fill="#422C4F"/>
<path d="M446.821 243.875L443.994 249.768L464.393 244.857L469.923 233.686C463.41 235.65 456.283 237.737 449.155 239.824C448.295 241.052 447.558 242.402 446.821 243.875Z" fill="#422C4F"/>
<path d="M450.015 238.351C449.77 238.842 449.401 239.333 449.155 239.701C456.406 237.614 463.41 235.527 469.923 233.563L470.538 232.213C464.147 234.177 457.143 236.264 450.015 238.351Z" fill="#454F6B"/>
<path d="M515.269 135.233L522.642 142.967L544.393 119.274L518.464 93.3715C513.917 88.8294 507.896 86.1287 501.383 85.8831C478.526 84.7783 436.621 87.1107 415.607 114.364L402.213 147.754L426.176 162.854L433.549 137.565L434.901 141.248C440.799 157.452 443.503 174.516 443.011 191.703V192.439C442.888 195.754 444.732 198.823 447.804 200.296L450.999 201.769C457.758 204.961 463.779 209.38 469.063 214.659L469.923 215.641C472.75 218.587 476.682 220.183 480.86 220.183C483.933 220.183 486.882 219.201 489.462 217.482L518.095 197.841L518.341 176.112C518.464 167.519 517.972 158.803 516.989 150.21L515.269 135.233Z" fill="#039DBC"/>
<path d="M429.617 150.946L433.549 137.565C430.723 128.972 422.981 121.238 422.981 121.238C428.019 132.532 429.617 142.844 429.617 150.946Z" fill="#228F94"/>
<path d="M516.498 146.281L515.269 135.233L499.662 114.978C502.98 126.517 508.756 137.197 516.498 146.281Z" fill="#228F94"/>
<path d="M482.581 90.3022C480.983 93.2485 478.648 96.1947 475.699 98.6499C472.75 101.105 469.063 102.947 465.131 103.806C461.198 104.665 457.02 104.297 453.334 103.315C449.647 102.333 446.329 100.491 443.625 98.4044C445.469 101.228 448.541 103.929 452.473 105.525C456.406 107.243 461.198 107.857 465.745 106.875C470.292 105.893 474.47 103.438 477.297 100.369C480.123 97.2996 481.966 93.6168 482.581 90.3022Z" fill="#228F94"/>
<path d="M503.472 158.066C501.26 158.312 499.048 158.68 496.59 158.68C494.132 158.68 491.674 158.557 489.217 158.312C484.178 157.698 478.771 156.347 473.61 154.506C463.288 150.946 453.334 145.913 445.592 141.984C451.736 148.122 461.321 154.629 472.258 158.434C477.665 160.276 483.564 161.381 488.971 161.381C491.674 161.381 494.378 161.012 496.836 160.521C499.293 159.907 501.505 159.048 503.472 158.066Z" fill="#228F94"/>
<path d="M503.472 144.317C499.294 145.544 494.009 146.895 488.479 147.509C483.072 148.245 477.543 148.245 473.241 148.122C477.297 149.596 483.072 150.332 488.848 149.596C494.501 148.859 499.908 146.772 503.472 144.317Z" fill="#228F94"/>
<path d="M500.522 195.14C495.976 197.349 489.954 199.436 483.564 200.296C477.297 201.155 470.784 200.664 465.868 199.805C468.08 201.032 470.907 202.014 473.979 202.505C477.051 202.996 480.492 203.119 483.81 202.628C487.128 202.137 490.446 201.155 493.272 199.805C496.221 198.577 498.679 196.858 500.522 195.14Z" fill="#228F94"/>
<path d="M448.787 182.25C451.613 186.056 456.406 190.229 462.059 192.93C467.711 195.631 473.979 196.858 478.648 196.736C474.102 195.385 468.449 193.544 463.042 190.966C457.635 188.388 452.719 185.073 448.787 182.25Z" fill="#228F94"/>
<path d="M536.16 119.765C533.456 121.238 530.261 123.693 527.68 126.639C524.977 129.585 522.888 133.023 521.782 135.724C523.748 133.391 526.206 130.445 528.786 127.499C531.244 124.675 534.07 121.852 536.16 119.765Z" fill="#228F94"/>
<path d="M526.697 118.783C525.223 120.256 523.502 122.588 522.273 125.166C521.044 127.744 520.184 130.445 519.938 132.532C520.799 130.568 521.905 128.113 523.134 125.657C524.485 123.079 525.714 120.624 526.697 118.783Z" fill="#228F94"/>
<path d="M422.98 154.997C421.874 152.665 419.539 150.087 416.959 148.123C414.255 146.159 411.183 144.808 408.603 144.44C410.323 146.404 412.781 148.491 415.361 150.332C417.819 152.297 420.523 154.015 422.98 154.997Z" fill="#228F94"/>
<path d="M421.875 143.949C420.277 142.598 417.819 141.616 415.362 141.248C412.781 140.88 410.2 141.125 408.234 141.862C410.2 142.475 412.535 142.966 414.993 143.335C417.328 143.703 419.786 143.949 421.875 143.949Z" fill="#228F94"/>
<path d="M470.906 345.767V351.905C470.906 353.009 470.415 353.992 469.677 354.728L455.668 367.495H449.155C447.558 367.495 446.329 368.723 446.329 370.319C446.329 373.633 449.032 376.211 452.227 376.211H453.333C454.808 376.211 456.283 375.72 457.389 374.861L458.495 374.001C458.249 375.475 459.355 376.702 460.83 376.702H477.174C478.771 376.702 480.123 375.72 480.614 374.247L486.144 368.6C489.585 367.863 491.797 364.303 490.568 360.989L488.356 354.237V345.767H470.906Z" fill="#F5BE86"/>
<path d="M477.788 354.483C481.598 354.237 485.284 352.887 488.356 350.677V345.89H470.906V352.028C470.906 352.641 470.784 353.133 470.538 353.624C472.873 354.237 475.33 354.606 477.788 354.483Z" fill="#F5BE86"/>
<path d="M517.972 198.086C496.221 205.452 478.157 217.359 468.326 224.602C462.796 228.653 459.601 235.037 459.478 241.911C458.986 272.233 464.393 348.467 464.393 348.467L465.376 348.836C475.207 352.15 485.899 350.8 494.624 345.153V248.54C538.371 242.525 523.502 207.907 517.972 198.086Z" fill="#454F6B"/>
<path d="M523.994 213.799C523.994 216.132 523.502 218.587 522.642 220.797C520.43 226.689 515.514 231.722 509.124 234.791C503.594 237.492 496.958 238.597 489.585 238.229H488.971L491.428 346.872L492.534 346.258L490.077 239.333C497.45 239.579 503.963 238.474 509.616 235.773C516.252 232.582 521.29 227.303 523.625 221.165C523.994 220.06 524.362 218.955 524.608 217.728C524.608 217.605 524.485 216.255 523.994 213.799Z" fill="#797C99"/>
<path d="M524.854 140.511L536.159 154.26L497.696 205.083L484.67 207.538C482.335 208.029 480.246 209.011 478.525 210.607L477.542 211.589C474.839 214.044 473.241 217.482 473.241 221.164L477.419 218.341L488.602 219.814C494.992 220.673 501.382 217.604 504.7 212.08L551.397 166.291C558.033 159.784 558.525 149.227 552.626 142.107L538.74 125.534L524.854 140.511Z" fill="#F5BE86"/>
<path d="M538.74 125.412L524.854 140.511L530.015 146.772L540.215 127.008L538.74 125.412Z" fill="#BB7C4F"/>
<path d="M469.186 87.3562L466.728 72.3794C465.745 75.5712 464.393 78.6402 462.427 81.2181C459.724 84.901 455.668 87.7244 451.121 88.461L451.613 91.1617C449.647 91.7755 447.804 92.3893 445.96 93.0031C448.049 96.9315 452.227 99.8777 456.651 100.614C461.936 101.596 467.588 99.8777 471.766 96.3177C474.962 93.6169 477.174 90.0569 478.525 86.1286C475.453 86.4968 472.381 86.8651 469.186 87.3562Z" fill="#F5BE86"/>
<path d="M450.754 74.8922L449.178 96.5799L475.929 91.1965L473.763 65.6627L467.378 47.7749L450.754 74.8922Z" fill="#F5BE86"/>
<path d="M424.154 40.0781C424.154 40.0781 422.169 48.9586 422.741 58.293C422.927 61.8806 421.195 66.0437 422.543 69.6265C422.841 70.4523 426.2 69.4741 426.587 70.3063C429.979 84.9014 436.434 94.7671 453.434 82.1524C470.434 69.5377 469.651 63.2202 469.651 63.2202C469.651 63.2202 477.637 49.2357 472.854 40.0422C468.072 30.8488 453.473 16.5638 439.955 21.8364C425.058 27.6343 424.154 40.0781 424.154 40.0781Z" fill="#F5BE86"/>
<path opacity="0.1" d="M439.152 88.0417C444.886 88.4583 451.358 83.4857 454.454 81.7318C464.165 76.2302 452.975 54.4115 449.288 50.6802C447.248 51.5211 446.398 56.4074 446.398 56.4074C448.977 75.3965 435.37 67.4376 426.551 70.7983L428.583 76.8835C429.099 76.5911 431.335 74.4117 433.755 73.7958C436.779 73.026 439.732 73.2406 439.732 73.2406C439.732 73.2406 443.523 79.5551 437.612 81.9925C434.552 83.2545 433.075 83.1472 431.599 83.0399C433.389 85.6439 435.569 87.7814 439.152 88.0417Z" fill="black"/>
<path d="M402.848 43.0872C402.497 39.3088 400.709 27.0268 420.305 25.4125C429.113 24.7121 431.307 21.5655 434.494 17.0612C437.68 12.557 444.953 -0.228248 455.97 4.32503C463.954 7.58568 462.649 15.7114 462.649 15.7114C462.649 15.7114 463.586 7.73762 467.241 9.07545C470.986 10.4198 466.148 15.5188 466.148 15.5188C466.148 15.5188 473.396 12.918 478.503 16.4164C483.61 19.9149 485.057 30.7424 480.667 38.2866C476.276 45.8307 476.107 54.307 476.833 57.8445C477.654 61.2996 478.922 68.4507 475.746 69.1135C472.571 69.7763 469.188 63.4545 465.863 61.2472C462.628 59.0463 457.755 56.0117 458.92 53.5051C460.085 50.9985 462.824 39.1347 455.839 39.3421C448.854 39.5494 448.409 45.6825 449.274 49.7662C450.138 53.8499 446.475 53.8518 446.475 53.8518C446.475 53.8518 437.17 40.4876 438.631 35.1432C440.098 29.7098 434.364 34.8332 430.119 37.9202C425.874 41.0072 423.841 41.9317 423.841 41.9317L422.792 47.7529C422.792 47.7529 420.039 51.2163 414.483 51.4382C408.927 51.66 403.456 49.4754 402.848 43.0872Z" fill="#0B2435"/>
<path d="M438.067 49.0417C441.249 48.29 441.205 58.7411 440.268 61.8004C439.101 65.5579 431.142 68.107 428.579 66.4911C426.53 65.1806 425.015 57.7436 424.435 54.6634C424.308 53.9394 424.722 53.1653 425.459 52.8614L438.067 49.0417Z" fill="#EDB17A" stroke="#0B2435" stroke-miterlimit="10"/>
<path d="M422.076 67.448C421.359 67.4853 420.591 66.9827 420.103 66.3218C418.715 64.5232 417.921 59.4617 417.638 57.2073C417.505 56.5722 417.906 55.9758 418.547 55.7544L421.565 54.812C422.022 54.6665 422.441 55.0544 422.58 55.6006L422.932 58.1281L424.939 57.5591" stroke="#0B2435" stroke-miterlimit="10" stroke-linejoin="round"/>
<path d="M447.29 46.3158L439.926 50.5165" stroke="#0B2435" stroke-miterlimit="10"/>
<path d="M429.791 62.1629C430.38 62.2057 430.892 61.7628 430.935 61.1737C430.978 60.5847 430.535 60.0724 429.946 60.0296C429.357 59.9868 428.845 60.4297 428.802 61.0188C428.759 61.6078 429.202 62.1201 429.791 62.1629Z" fill="#0B2435"/>
<path d="M433.862 79.123C433.862 79.123 437.634 78.8609 437.589 74.5686" stroke="#0B2435" stroke-miterlimit="10" stroke-linecap="round" stroke-linejoin="round"/>
<path d="M404.179 191.088L422.981 160.767L404.179 148.859L401.229 156.225L404.179 191.088Z" fill="#DAA269"/>
<path d="M404.179 148.859L422.98 160.767L417.573 169.483L403.073 151.805L404.179 148.859Z" fill="#BB7C4F"/>
<path d="M389.678 149.35L381.199 182.741C379.233 190.475 385.131 198.086 393.119 198.086C400.615 198.086 406.391 191.457 405.285 184.091L401.23 156.347L400 150L389.678 149.35Z" fill="#F5BE86"/>
<path d="M391.338 115.488L412.741 146.404C413.121 146.952 412.868 147.711 412.235 147.922L410.5 148.5H400L377 118.5V117.399C377 116.888 377.385 116.459 377.893 116.404L390.409 115.063C390.773 115.024 391.13 115.187 391.338 115.488Z" fill="#C0C0C0"/>
<path d="M399 149.5L377.003 118.895C376.555 118.272 376.946 117.399 377.708 117.317L389.409 116.063C389.773 116.024 390.13 116.187 390.338 116.488L411.505 147.063C411.945 147.699 411.528 148.572 410.757 148.629L399 149.5Z" fill="#F4F5F5"/>
<path d="M384.5 129C387.5 133 387.5 133 387.5 133C387.5 133 388.5 132 390.5 130.5C391.79 129.532 395.19 128.317 397.5 127C397 125 400.113 123.823 401 124C403.5 124.5 409.5 136 409.5 138.5C409.5 141 405.5 142 403.5 144.5C401.5 147 400 150 400 150L389.5 149.5C389.5 149.5 382.5 141 381.5 136.5C380.5 132 381.5 129 384.5 129Z" fill="#F5BE86"/>
<path d="M233.501 103.444L261.309 141.616L318.061 139.594C321.095 139.467 324.129 140.099 326.909 141.49L337.148 146.546L330.828 153.877H318.693L313.764 150.211L262.699 159.059C255.621 160.323 248.542 157.669 243.866 152.107L216.311 119.117L233.501 103.444Z" fill="#EBA58E"/>
<path d="M233.501 103.444L216.185 119.244L220.861 124.805L234.765 105.087L233.501 103.444Z" fill="#422C4F"/>
<path d="M258.275 159.565L298.5 156L295.5 138L269.651 140.858C266.238 141.237 262.826 139.847 260.803 137.066L224.274 89.1613C219.977 83.7261 212.14 82.715 206.578 86.8861C201.649 90.6781 200.132 97.5036 203.166 103.065L243.234 153.245C246.773 157.796 252.461 160.197 258.275 159.565Z" fill="#FFCE6C"/>
<path d="M265.607 141.238C262.068 143.007 256.885 146.673 253.978 149.58C257.644 147.811 262.826 144.019 265.607 141.238Z" fill="#BF7E4F"/>
<path d="M264.595 140.731C261.435 141.363 256.632 143.133 253.851 144.65C257.011 144.018 261.814 142.248 264.595 140.731Z" fill="#BF7E4F"/>
<path d="M196.846 92.1945C196.846 92.1945 222.757 101.422 230.72 99.1464C238.684 96.8712 248.795 80.8186 249.68 79.4282C250.565 78.0379 255.242 55.7917 255.242 55.7917L241.97 26.4673L199.753 45.4271L196.846 92.1945Z" fill="#8E1333"/>
<path d="M223.516 85.3697L214.036 98.2623L194.697 98.5151L200.132 67.8003L223.516 85.3697Z" fill="#D17861"/>
<path d="M191.411 186.741L206 160C208.907 160 212.346 158.885 215 158C221.194 155.725 225.285 148.189 224.653 141.617C223.769 132.769 224.527 124.426 224.527 124.426L230.721 135.676L221.367 98.8938L204.556 99.0202L195.076 78.9229L184.712 75.2573C168.153 77.4061 153.618 90.4251 149.573 106.604C147.045 116.716 148.309 127.586 144.138 137.193C140.472 145.788 132.888 152.108 125.178 157.543C118.984 161.967 112.412 166.138 107.103 171.573C124.672 167.781 155.64 171.952 191.411 186.741Z" fill="#F6D084"/>
<path d="M153.238 104.961L158.547 134.791C158.926 137.066 161.328 138.457 163.477 137.698L182.436 170.562C185.217 175.365 189.894 178.651 195.455 179.662C195.455 179.662 204.042 164.446 206 160C171.542 158.946 153.238 104.961 153.238 104.961Z" fill="#BF7E4F"/>
<path d="M180.793 184.213C177.886 181.053 174.094 177.893 169.67 174.986C165.246 172.078 160.19 169.55 154.881 167.528C149.573 165.506 144.138 164.115 138.829 163.483C133.52 162.725 128.591 162.725 124.293 163.104C132.635 165 143.253 167.528 153.365 171.446C163.603 175.112 173.209 180.168 180.793 184.213Z" fill="#BF7E4F"/>
<path d="M178.771 183.328C177.001 178.145 172.956 171.825 167.521 167.022C162.213 162.093 155.513 158.68 150.205 157.29C154.881 160.197 160.569 164.241 165.752 168.918C170.934 173.595 175.358 179.03 178.771 183.328Z" fill="#BF7E4F"/>
<path d="M181.172 172.711C177.633 167.781 172.83 161.714 167.9 155.774C162.971 149.833 158.041 143.766 153.997 139.342C156.525 144.777 160.696 151.476 165.752 157.543C170.681 163.61 176.369 169.172 181.172 172.711Z" fill="#BF7E4F"/>
<path d="M225.976 318.636L224.062 312.475L207.125 309.062L203.074 315.113C206.487 317.894 211.108 319.578 215.406 319.958C218.945 320.337 222.563 319.9 225.976 318.636Z" fill="#CC826A"/>
<path d="M244.413 344.074L238.725 342.684C236.197 342.052 234.174 340.282 233.289 337.881L226.085 318.163C222.672 319.427 219.006 319.932 215.341 319.553C211.043 319.047 206.872 317.278 203.459 314.624L201.943 317.025C199.541 320.564 200.931 325.367 204.723 327.263C209.021 329.412 212.307 332.825 214.203 337.122L217.742 345.086C219.259 348.498 222.672 350.647 226.338 350.647H239.609C242.39 350.647 244.918 348.625 245.55 345.844C245.677 344.959 245.171 344.201 244.413 344.074Z" fill="#EBA58E"/>
<path d="M248.205 207.818L209.274 191.386C176.031 177.609 147.212 173.69 130.78 177.229C129.643 178.367 128.505 179.631 127.494 180.895C121.427 188.732 118.393 191.386 119.784 201.245C120.669 207.186 222.04 236.637 222.04 236.637C217.363 243.209 215.341 251.299 214.583 259.262C213.824 267.225 214.077 275.315 212.939 283.278C211.549 293.642 208.01 303.628 202.575 312.476C211.928 318.796 226.211 315.636 226.211 315.636L229.877 302.49L258.948 234.488C263.372 224.123 258.569 212.115 248.205 207.818Z" fill="#495375"/>
<path d="M225.453 311.338C222.799 310.959 219.765 310.706 216.858 310.2C213.824 309.695 210.917 308.936 208.263 308.431C209.906 310.579 212.939 312.349 216.352 312.855C219.639 313.487 223.178 312.728 225.453 311.338Z" fill="#422C4F"/>
<path d="M221.408 309.189C220.397 308.684 219.133 308.305 217.869 307.799C216.605 307.293 215.467 306.661 214.456 306.282C214.962 307.293 216.099 308.431 217.49 308.937C218.88 309.569 220.397 309.569 221.408 309.189Z" fill="#422C4F"/>
<path d="M190.262 323.528C194.054 323.402 197.581 322.24 200.994 320.47L200.362 318.827L183.424 315.414L179.251 321.767C182.664 323.157 186.596 323.655 190.262 323.528Z" fill="#CC826A"/>
<path d="M220.712 350.427L215.024 349.036C212.496 348.404 210.474 346.635 209.589 344.233L200.867 320.597C197.455 322.24 193.789 323.251 189.997 323.504C186.332 323.63 182.666 322.998 179.127 321.734L177.989 323.377C175.588 326.917 176.978 331.72 180.77 333.616C185.068 335.764 188.354 339.177 190.25 343.475L193.789 351.438C195.306 354.851 198.719 356.999 202.384 356.999H215.656C218.437 356.999 220.965 354.977 221.597 352.196C221.976 351.438 221.47 350.68 220.712 350.427Z" fill="#EBA58E"/>
<path d="M228.422 204.436L186.585 186.867C150.814 172.078 127.52 168.708 109.951 172.5C108.687 173.764 109.588 177.11 108.45 178.5C101.878 186.969 89.2577 194.956 90.9009 205.574C91.7857 212.02 93.6816 218.466 98.3584 223.017C98.7376 223.396 99.2432 223.775 99.6224 224.281C106.321 230.222 115.672 235.277 124.647 235.53H200.362C195.306 242.482 193.284 251.33 192.399 259.925C191.514 268.52 191.767 277.242 190.629 285.71C189.112 296.834 185.321 307.577 179.506 317.057C189.618 323.883 204.912 320.47 204.912 320.47L208.831 306.313L240.051 233.255C244.728 222.006 239.545 209.113 228.422 204.436Z" fill="#797C99"/>
<path d="M227.158 213.158C224.757 213.537 221.976 214.422 219.195 215.686C216.414 216.95 213.634 218.72 211.106 220.869C208.578 223.017 206.429 225.419 204.659 228.073C202.89 230.601 201.626 233.256 200.867 235.531C203.775 231.486 207.819 226.683 212.622 222.638C217.299 218.593 222.734 215.433 227.158 213.158Z" fill="#495375"/>
<path d="M216.288 211.136C214.392 211.894 212.243 213.158 210.347 214.801C208.451 216.444 206.555 218.593 205.165 220.995C203.775 223.396 202.637 225.924 202.005 228.452C201.373 230.98 201.247 233.382 201.373 235.404C202.384 231.359 204.154 226.43 206.808 222.006C209.463 217.582 213.128 213.917 216.288 211.136Z" fill="#495375"/>
<path d="M126.292 210.503C132.486 205.952 140.323 200.264 148.791 195.335C157.134 190.405 165.981 186.234 172.933 182.948C165.349 183.833 155.617 186.993 146.895 192.175C138.174 197.231 130.716 204.183 126.292 210.503Z" fill="#495375"/>
<path d="M149.676 215.812C152.204 211.641 155.364 206.459 158.903 201.529C162.442 196.6 166.487 191.923 169.647 188.257C165.476 190.659 160.799 195.083 157.134 200.139C153.342 205.195 150.687 211.135 149.676 215.812Z" fill="#495375"/>
<path d="M203.522 315.414C200.615 315.414 197.329 315.414 194.169 315.035C190.882 314.782 187.722 314.15 184.815 313.771C186.585 315.92 190.124 317.816 193.916 318.069C197.581 318.321 201.373 317.184 203.522 315.414Z" fill="#495375"/>
<path d="M198.845 313.518C197.455 313.139 195.812 312.633 194.168 312.254C192.525 311.749 190.882 311.243 189.492 310.864C190.376 312.001 191.893 313.139 193.789 313.645C195.559 314.15 197.455 314.024 198.845 313.518Z" fill="#495375"/>
<path d="M245.888 42.0139C235.397 35.8204 218.586 26.2141 202.407 49.345L201.396 59.3305C199.647 68 200.954 80 204.647 86C208.647 92.5 213.147 97.5 224.147 96.5C233.147 95 248.037 89.1605 251.071 73.9927L253.978 58.1929C254.104 57.5609 254.231 56.9289 254.357 56.2969C252.208 51.241 249.428 46.1851 245.888 42.0139Z" fill="#FAB49D"/>
<path d="M224.78 51.4932C221.367 51.114 219.471 53.1364 217.449 55.538C220.103 54.274 221.746 53.8948 224.401 54.1476C227.055 54.4004 230.721 56.6756 233.375 57.1811C232.111 54.4004 228.193 51.8724 224.78 51.4932Z" fill="#422C4F"/>
<path d="M226.089 64.6309C227.406 64.4675 228.34 63.268 228.177 61.9517C228.013 60.6355 226.814 59.7009 225.498 59.8643C224.181 60.0277 223.247 61.2272 223.41 62.5435C223.574 63.8597 224.773 64.7943 226.089 64.6309Z" fill="#422C4F"/>
<path d="M250.818 58.8254C253.093 59.5838 252.84 61.1005 252.714 63.7549C251.197 62.2381 251.071 61.3533 249.427 60.7213C247.531 60.0894 244.624 59.8366 241.97 59.963C244.372 58.067 248.543 58.067 250.818 58.8254Z" fill="#422C4F"/>
<path d="M245.888 66.408C244.877 66.7872 244.245 68.0512 244.371 69.1888C244.498 70.4528 245.383 71.2111 246.267 70.832C247.279 70.4528 247.911 69.1888 247.784 68.0512C247.658 66.7872 246.773 66.0288 245.888 66.408Z" fill="#422C4F"/>
<path d="M238.121 69.8419C238.034 69.5799 237.751 69.4383 237.489 69.5257C237.227 69.613 237.085 69.8961 237.172 70.1581L238.121 69.8419ZM233.605 75.2999C233.494 75.0469 233.2 74.9313 232.947 75.0418C232.694 75.1523 232.578 75.447 232.689 75.7001L233.605 75.2999ZM236.797 77.4767C237.529 77.2456 238.066 76.8259 238.421 76.2612C238.771 75.7067 238.925 75.0454 238.959 74.3531C239.026 72.9796 238.625 71.3535 238.121 69.8419L237.172 70.1581C237.669 71.6465 238.018 73.1253 237.96 74.3042C237.931 74.8881 237.804 75.3649 237.575 75.7282C237.353 76.0814 237.015 76.3593 236.496 76.5233L236.797 77.4767ZM233.147 75.5C232.689 75.7001 232.689 75.7003 232.689 75.7006C232.689 75.7007 232.689 75.7009 232.689 75.7011C232.689 75.7015 232.689 75.7019 232.69 75.7024C232.69 75.7033 232.69 75.7043 232.691 75.7055C232.692 75.7079 232.693 75.7108 232.695 75.7143C232.698 75.7212 232.702 75.7303 232.708 75.7413C232.718 75.7634 232.733 75.7935 232.752 75.8302C232.791 75.9034 232.848 76.0037 232.924 76.1199C233.076 76.3507 233.309 76.6526 233.637 76.9288C234.312 77.497 235.362 77.9306 236.797 77.4767L236.496 76.5233C235.432 76.8597 234.732 76.5433 234.281 76.1639C234.047 75.9663 233.874 75.7451 233.76 75.5712C233.703 75.485 233.663 75.4125 233.637 75.3636C233.624 75.3391 233.615 75.3208 233.61 75.3097C233.607 75.3042 233.605 75.3005 233.604 75.2988C233.604 75.298 233.604 75.2976 233.604 75.2978C233.604 75.2979 233.604 75.2981 233.604 75.2985C233.604 75.2986 233.604 75.2989 233.605 75.2991C233.605 75.2992 233.605 75.2994 233.605 75.2995C233.605 75.2997 233.605 75.2999 233.147 75.5Z" fill="#D17861"/>
<path d="M235.65 81.7023C230.215 81.0703 225.033 78.7951 220.735 75.5088C220.988 77.4048 221.367 79.5535 222.252 81.3231C223.137 83.0927 224.527 84.6095 226.423 85.3679C228.066 86.1263 229.962 86.1263 231.605 85.4943C233.375 84.8623 234.765 83.2191 235.65 81.7023Z" fill="white"/>
<path d="M205.315 48.8401C205.315 48.8401 217.204 33.3678 234.647 33.9998C246.528 34.5054 254.484 39 254.484 56.2976C247.658 52.1265 242.981 46.3121 242.729 42.0146C221.999 50.6097 211.508 51.4945 205.315 48.8401Z" fill="#422C4F"/>
<path d="M205.82 189.774C205.82 189.774 197.95 189.098 197.95 191.5C180.887 192.006 161.96 219.099 163.224 237.3C127.453 237.3 89.0745 237.3 89.0745 237.3C89.0745 237.3 84.8441 211.641 94.4504 190.912C98.6215 181.938 107.103 171.573 107.103 171.573C107.103 171.573 134.784 164.242 161.707 174.733C175.231 180.042 185.722 182.823 193.306 185.224C201.017 187.626 205.82 189.774 205.82 189.774Z" fill="#F6D084"/>
<path fill-rule="evenodd" clip-rule="evenodd" d="M241.717 95.1021C247.279 85.4958 251.071 80.3135 252.714 69.696C255.116 54.0226 260.803 49.3459 254.989 35.0628C251.956 27.7317 232.617 7.5 207.21 23.0002C195.737 30 186.043 43.2482 184.147 65.9999C183.262 79.2718 166 77 158.926 89.035C177.001 86.7598 174.347 99.2732 175.105 101.675C175.105 101.675 175.232 102.054 175.484 102.686C175.611 103.065 175.737 103.444 175.99 103.824C176.243 104.329 176.496 104.835 176.748 105.467C177.128 106.225 177.507 106.984 177.886 107.868C178.012 108.248 178.265 108.627 178.518 109.006C181.552 114.82 186.608 122.783 193.939 129.609C193.939 129.609 196.846 139.215 207.21 145.788H207.337C207.463 145.788 207.463 145.788 207.59 145.788C208.98 145.535 213.404 144.524 219.218 141.87C223.137 140.226 227.687 137.825 232.617 134.412C232.617 134.412 232.743 134.286 232.869 134.286C233.375 133.906 233.881 133.527 234.386 133.148C238.557 130.114 243.36 121.393 247.658 116.843C247.658 116.843 244.751 113.177 242.349 109.259C240.074 105.467 238.052 101.422 241.717 95.1021ZM231.353 94.4701C218.46 99.7788 209.359 94.5965 209.359 94.5965C209.106 94.0909 204.164 91.8157 202.647 82.3358C202.141 79.3023 202.02 75.792 202.147 72C202.652 55.821 211.992 45.396 214.647 43.5C224.632 36.2953 235.827 34.3512 242.147 36.5C255.166 40.9239 253.647 57.5 253.647 57.5C253.394 62.0503 250.944 73.3616 249.68 77.9119C249.175 79.5551 248.543 81.0719 247.532 82.3358C245.13 85.4958 240.2 90.9309 231.353 94.4701Z" fill="#F14F4F"/>
<path opacity="0.2" fill-rule="evenodd" clip-rule="evenodd" d="M240.959 110.902C235.65 93.4589 247.658 92.8269 252.335 72.3504C257.138 51.1154 254.989 42.394 253.219 38.2228C253.219 38.2228 253.219 43.4919 253.219 45.2615C253.219 45.2615 251.147 35.5 242.147 32.5C238.481 30.7304 215.932 35.3156 215.932 35.3156L221.493 27.3525C221.493 27.3525 209.738 35.5684 202.66 48.9667C195.582 62.3649 195.076 86.507 199.247 97.1245C199.247 97.1245 185.091 92.9533 180.288 83.0943C181.551 86.8862 183.7 91.4366 187.366 94.9757C194.823 102.054 220.988 101.675 230.72 96.9981C236.535 94.2173 239.821 93.2061 241.97 90.8046C239.948 93.8381 241.97 93.2061 239.063 95.3549C231.858 100.284 211.129 112.419 192.675 105.467C183.7 102.054 180.035 86.6334 180.035 86.6334C180.035 86.6334 182.436 102.307 190.399 108.121C190.399 108.121 205.188 112.039 218.207 108.121C231.226 104.203 232.237 105.214 237.925 99.6525C234.26 105.846 235.271 107.363 232.111 110.017C226.297 114.947 213.53 117.601 200.258 115.958C186.734 114.567 175.232 101.675 175.232 101.675C175.232 101.675 175.358 102.054 175.611 102.686C175.737 102.939 175.864 103.444 176.116 103.824C176.369 104.329 176.622 104.835 176.875 105.467C177.254 106.225 177.633 106.984 178.012 107.868C178.139 108.248 178.392 108.627 178.644 109.006C181.551 114.947 186.734 123.163 193.939 129.609C193.939 129.609 212.14 131.126 230.089 121.899C230.089 121.899 235.903 118.612 241.844 121.267C241.844 121.267 233.628 133.906 220.735 141.111C224.401 139.468 228.445 137.319 232.743 134.412C232.743 134.412 232.869 134.286 232.996 134.286C233.501 133.906 234.133 133.654 234.512 133.148C249.175 119.371 241.591 110.27 240.959 110.902ZM231.352 94.4701C218.46 99.7789 209.359 94.5965 209.359 94.5965C209.359 94.5965 201.641 91.5638 202.147 74.5C202.147 58.5 209.992 47.396 212.647 45.5C221.147 37.5 235.953 33.6284 242.147 36.5C255.166 40.9239 253.647 57.5 253.647 57.5C253.394 62.0503 251.071 72.9824 249.807 77.6591C249.301 79.5551 248.416 81.3247 247.152 82.9679C244.624 86.1278 239.695 91.1838 231.352 94.4701Z" fill="url(#paint0_linear)"/>
<path d="M185.254 112.444L204.04 162.884L267.07 178.199C270.408 179.008 273.633 180.694 276.135 183.053L289.5 197.756L279.959 203.625C279.959 203.625 270.535 202.421 265.587 197.756C260.638 193.092 258.984 188.635 258.984 188.635L200.13 182.517C191.948 181.727 184.954 176.628 181.572 169.188L161.281 124.545L185.254 112.444Z" fill="#EBA58E"/>
<path d="M185.254 112.444L161.281 124.545L164.788 132.002L186.11 114.72L185.254 112.444Z" fill="#422C4F"/>
<path d="M198.636 184.847L250.723 191.296L252.519 171.279L216.226 167.008C212.335 166.532 209.002 164.076 207.418 160.507L179.673 97.7379C176.391 90.4637 167.919 87.2926 160.656 90.4482C154.183 93.294 150.735 100.599 152.529 107.486L183.632 173.856C186.397 179.815 192.112 184.008 198.636 184.847Z" fill="#F6D084"/>
<path d="M211.706 166.475C207.301 167.476 200.461 170.162 196.562 172.604C200.966 171.603 207.806 168.917 211.706 166.475Z" fill="#BF7E4F"/>
<path d="M210.64 165.618C206.978 165.417 201.211 166.041 197.688 167.121C201.362 167.197 207.128 166.572 210.64 165.618Z" fill="#BF7E4F"/>
<path d="M286.405 242C283.564 248.326 290.35 290.233 290.35 290.233L296.133 292.562L300.774 285.516C300.774 285.516 318.894 253.317 307.918 234.5C303.478 226.952 306.027 224.149 293.971 231.334C288.805 234.414 288.104 238.216 286.405 242Z" fill="#F5BE86"/>
<path d="M300.972 285.174C300.972 285.174 303.799 291.07 303.92 294.001C301.92 302.501 296.974 309.988 290.92 311.5C286.28 312.645 278.777 311.5 279.92 303.5C280.92 296.501 287.905 292 289.943 288.557C294.337 290.496 298.432 287.924 300.972 285.174Z" fill="#F14F4F"/>
<path d="M306.405 214L286.405 237.5C294.405 231 311.405 229.5 311.405 250L325.848 244.047L344.038 227.766C340.905 207 319.905 214 306.405 214Z" fill="#282467"/>
<path d="M319.977 242.741C317.136 249.068 325.335 290.233 325.335 290.233L331.118 292.562L335.759 285.516C335.759 285.516 352.882 257.817 341.905 239C337.465 231.452 341.012 224.149 328.957 231.335C323.79 234.414 321.677 238.957 319.977 242.741Z" fill="#F5BE86"/>
<path d="M337.405 216.5C337.405 216.5 327.405 218.5 317.405 241C343.905 227 345.405 251.5 345.405 251.5L352.664 245.191C364.189 239.813 366.111 232.718 362.423 213.665L337.405 216.5Z" fill="#2A2A76"/>
<path d="M335.957 285.174C335.957 285.174 338.784 291.07 338.905 294C336.905 302.5 331.96 309.988 325.905 311.5C321.266 312.645 313.762 311.5 314.905 303.5C315.905 296.501 325.175 291.746 324.928 288.557C329.322 290.496 333.418 287.924 335.957 285.174Z" fill="#F14F4F"/>
<path d="M326.873 148.917L326.291 138.002L339.98 142.481L341.255 150.702L346.945 158.311L329.021 164.712L319.439 155.234L326.873 148.917Z" fill="#F5BE86"/>
<path d="M323.681 160.025C323.681 160.025 330.904 193.271 299.554 205.245C280.82 212.413 271.024 209.402 271.024 209.402C271.024 209.402 270.24 211.632 266.923 213.162C265.415 213.885 259.872 214.804 258.79 214.22C257.011 213.196 258.719 208.195 258.602 206.521C258.371 203.324 257.402 204.501 256.876 202.711C256.315 200.798 264.224 199.427 267.333 201.867C270.763 204.527 288.299 197.313 294.058 190.224C296.257 187.517 299.383 176.234 300.015 166.234C304.183 155.838 324.14 160.09 324.14 160.09" fill="#F5BE86"/>
<path d="M267.891 204.181L239.639 194.151C238.864 193.876 238.106 194.603 238.349 195.389L245.789 219.442C245.891 219.772 246.157 220.026 246.491 220.114L283.989 229.947C284.889 230.183 285.596 229.169 285.062 228.407L268.376 204.55C268.257 204.379 268.087 204.25 267.891 204.181Z" fill="#F14F4F"/>
<path d="M266.27 204.846L241.777 196.151L248.154 217.031L280.875 225.855L266.27 204.846Z" fill="white"/>
<path d="M296.202 183.506C296.202 183.506 296.365 175.952 297.783 170.761C299.2 165.569 305.301 150.957 317.635 152.028C327.436 156.67 322.604 168.74 322.604 168.74L315.069 181.583L306.166 185.501L296.202 183.506Z" fill="#CB4B4B"/>
<path d="M324.353 151.3C324.353 151.3 311.227 147.017 306.475 162.422C300.086 183.138 308.705 207.478 312.07 213.661C315.435 219.845 337.11 221.344 365.622 213.721C360.698 202.582 362.013 183.033 362.013 183.033C362.013 183.033 366.996 157.375 354.974 153.959C342.946 150.619 341.262 150.626 341.262 150.626C341.262 150.626 338.79 157.068 332.018 156.633C325.253 156.122 326.969 148.696 326.969 148.696L324.353 151.3Z" fill="#F14F4F"/>
<path d="M316.444 151.838C312.179 160.419 303.024 193.595 327.832 218.932C314.005 217.808 309.425 216.798 305.235 214.828C304.677 208.046 297.07 183.744 308.312 156.487C311.273 149.31 318.067 151.349 318.067 151.349C316.506 152.591 317.292 149.999 316.444 151.838Z" fill="#CB4B4B"/>
<path d="M305.197 109.906C305.197 109.906 296.617 127.695 305.197 141.5C313.708 155.339 332.305 155.501 341.905 143C359.802 134.224 350.905 123.5 350.905 123.5L332.305 98.7393L305.197 109.906Z" fill="#F5BE86"/>
<path d="M295.27 114.592C289.489 107.137 294.662 94.6723 302.924 98.3134C302.924 98.3134 298.905 91.6485 303.405 88C309.552 83.0165 316.085 85.8293 316.861 88.5007C319.364 85.4374 324.905 86.0007 326.339 90.0208C328.012 87.6946 330.556 84.1889 336.45 86.5996C342.276 89.0433 342.355 94.5009 342.355 94.5009C342.355 94.5009 353.905 91.5005 352.905 103.5C359.401 104.523 360.405 119 353.905 124.501C355.405 128 355.405 133.963 348.65 140C340.233 144.13 342.355 142.707 342.355 142.707C342.355 142.707 353.905 134.5 349.905 128C347.765 125.308 346.405 126 344.905 129.5C343.92 131.798 343.841 133.538 343.346 134.5C342.658 132.717 341.374 131.156 342.355 129.5C342.88 128.656 342.588 126.829 343.346 126.296C341.305 123.809 344.218 119.006 345.405 117.252C341.437 119 337.905 119 337.905 119C337.905 119 328.095 119.368 328.294 115.382C325.197 117.209 319.831 115.898 316.861 113.942C312.5 115.953 311.205 115.899 309.39 114.234C308.072 115.713 305.909 116.668 303.991 117.252C300.737 118.223 297.275 117.18 295.27 114.592Z" fill="#634632"/>
<path d="M353.79 154.079C353.79 154.079 381.084 176.009 382.952 209.551C384.034 229.563 384.232 231.459 384.232 231.459C384.232 231.459 386.077 232.829 386.552 236.489C386.802 238.149 386.859 244.649 385.905 245.5C384.364 246.887 380.079 247.469 378.405 247C375.28 246.285 375.391 242.156 374.905 240C371.905 242 372.523 234.845 375.802 232.632C381.105 228.965 360.416 187.536 351.728 180.383C343.04 173.229 353.828 153.569 353.828 153.569" fill="#F5BE86"/>
<path d="M359.727 156.477C363.301 160.748 373.197 172.711 375.36 178.003C365.455 181.491 358.579 193.277 358.579 193.277L344.025 177.372C344.025 177.372 333.633 166.533 343.7 156.391C350.542 149.559 359.256 155.929 359.727 156.477Z" fill="#F14F4F"/>
<path d="M324.065 142.841C323.802 142.756 323.52 142.9 323.435 143.163C323.35 143.426 323.494 143.708 323.756 143.793L324.065 142.841ZM328.6 139.189C328.52 138.925 328.241 138.776 327.977 138.856C327.713 138.936 327.563 139.215 327.643 139.479L328.6 139.189ZM323.756 143.793C324.986 144.191 326.404 143.73 327.388 142.882C328.384 142.024 329.049 140.671 328.6 139.189L327.643 139.479C327.946 140.479 327.523 141.446 326.735 142.125C325.935 142.813 324.872 143.103 324.065 142.841L323.756 143.793Z" fill="black"/>
<path d="M320.365 128.285C320.256 128.032 319.962 127.914 319.708 128.023C319.454 128.132 319.337 128.426 319.445 128.679L320.365 128.285ZM324.537 129.364C324.758 129.198 324.803 128.885 324.637 128.664C324.472 128.443 324.158 128.398 323.937 128.564L324.537 129.364ZM319.445 128.679C319.784 129.47 320.689 129.936 321.6 130.072C322.539 130.213 323.643 130.035 324.537 129.364L323.937 128.564C323.292 129.048 322.469 129.191 321.748 129.083C320.998 128.971 320.507 128.619 320.365 128.285L319.445 128.679Z" fill="black"/>
<path d="M308.365 127.804C308.256 127.55 307.962 127.433 307.708 127.541C307.454 127.65 307.337 127.944 307.445 128.198L308.365 127.804ZM312.537 128.882C312.758 128.717 312.803 128.403 312.637 128.182C312.472 127.961 312.158 127.917 311.937 128.082L312.537 128.882ZM307.445 128.198C307.784 128.988 308.689 129.454 309.6 129.591C310.539 129.731 311.643 129.553 312.537 128.882L311.937 128.082C311.292 128.567 310.469 128.71 309.748 128.602C308.998 128.489 308.507 128.137 308.365 127.804L307.445 128.198Z" fill="black"/>
<ellipse cx="389.668" cy="119.803" rx="1" ry="1.5" transform="rotate(-34.0391 389.668 119.803)" fill="#353535"/>
<defs>
<linearGradient id="paint0_linear" x1="200.644" y1="134.296" x2="235.259" y2="32.1629" gradientUnits="userSpaceOnUse">
<stop/>
<stop offset="1" stop-color="#9F1B3B"/>
</linearGradient>
</defs>
</svg>
