<svg width="60" height="60" viewBox="0 0 60 60" fill="none" xmlns="http://www.w3.org/2000/svg">
<path opacity="0.5" d="M30 60C46.5686 60 60 46.5685 60 30C60 13.4315 46.5686 0 30 0C13.4315 0 0 13.4315 0 30C0 46.5685 13.4315 60 30 60Z" fill="#FFF9EC"/>
<path d="M30 53C42.7026 53 53 42.7026 53 30C53 17.2975 42.7026 7 30 7C17.2975 7 7 17.2975 7 30C7 42.7026 17.2975 53 30 53Z" fill="#FFCE6C"/>
<path d="M28.6075 21.4197C25.946 19.8989 24.6152 19.1385 23.6191 19.7165C22.6229 20.2946 22.6229 21.8273 22.6229 24.8927V34.7138C22.6229 37.7792 22.6229 39.3119 23.6191 39.89C24.6152 40.4681 25.946 39.7077 28.6075 38.1868L37.201 33.2762C39.8987 31.7347 41.2475 30.9639 41.2475 29.8033C41.2475 28.6426 39.8987 27.8719 37.201 26.3303L28.6075 21.4197Z" fill="white"/>
</svg>
