<svg width="117" height="35" viewBox="0 0 117 35" fill="none" xmlns="http://www.w3.org/2000/svg">
<path d="M71.8721 17.8038H80.4929V16.4357H71.8721C70.3993 16.4357 69.0444 15.8467 68.0822 14.9156C67.1003 13.9655 66.5112 12.6735 66.5112 11.2484V0.0947266H65.0973V11.2294C65.0973 13.0345 65.8631 14.6876 67.1003 15.8657C68.2982 17.0627 70.0066 17.8038 71.8721 17.8038ZM74.2679 8.39821H75.7996V7.03013H74.2679V8.39821ZM60.2862 16.4927C61.1109 15.6946 61.6411 14.5736 61.6411 13.3575V7.50516H60.2273V13.3385C60.2273 14.1746 59.8738 14.9536 59.2847 15.5046C58.7152 16.0557 57.9101 16.4167 57.046 16.4167H49.0341V17.7848H57.046C58.3028 17.8038 59.4614 17.2907 60.2862 16.4927ZM35.7986 17.8038H44.8121V16.4357H35.7986C34.3258 16.4357 32.9708 15.8467 32.0086 14.9156C31.0268 13.9655 30.4376 12.6735 30.4376 11.2484V7.50516H29.0238V11.2294C29.0238 12.6545 28.415 13.9655 27.4528 14.8966C26.4709 15.8467 25.1356 16.4167 23.6628 16.4167H4.61474C3.7507 16.4167 2.94558 16.0747 2.3761 15.5046C1.80662 14.9536 1.43352 14.1746 1.43352 13.3385V11.8374C1.43352 11.0014 1.78698 10.2223 2.3761 9.67129C2.94558 9.12026 3.7507 8.75924 4.61474 8.75924H11.0361V7.41016H4.5951C3.33832 7.41016 2.17973 7.90419 1.35497 8.72123C0.510567 9.51928 0 10.6213 0 11.8564V13.3575C0 14.5736 0.510567 15.6946 1.35497 16.4927C2.17973 17.2907 3.33832 17.8038 4.5951 17.8038H23.6432C25.5087 17.8038 27.2171 17.0627 28.4347 15.8657C28.9452 15.3716 29.3969 14.7826 29.7111 14.1366C30.0449 14.7826 30.4769 15.3526 30.9875 15.8657C32.2443 17.0627 33.9331 17.8038 35.7986 17.8038ZM36.2503 8.83524H44.8121V7.46716H36.2503V8.83524ZM15.9847 19.3429H14.453V20.7109H15.9847V19.3429Z" fill="#6D6E71"/>
<path d="M79.5499 29.4893C79.4713 29.4133 79.3732 29.3372 79.2946 29.2612C79.3928 29.1852 79.4713 29.1092 79.5499 29.0332C80.1194 28.4822 80.4925 27.7032 80.4925 26.8481V26.6201C80.4925 25.765 80.139 25.005 79.5499 24.435C78.9804 23.8839 78.1753 23.5229 77.2916 23.5229H70.6739H69.9669V24.2069V34.3155V34.9996H70.6739H77.2916C78.1753 34.9996 78.9804 34.6576 79.5499 34.0875C80.1194 33.5365 80.4925 32.7574 80.4925 31.9024V31.6744C80.4925 30.8193 80.139 30.0593 79.5499 29.4893ZM79.0786 26.8481C79.0786 27.3231 78.8822 27.7602 78.5484 28.0642C78.2146 28.3872 77.7825 28.5772 77.2916 28.5772H71.3808V24.891H77.2916C77.7825 24.891 78.2342 25.081 78.5484 25.404C78.8822 25.727 79.0786 26.1451 79.0786 26.6201V26.8481ZM79.0786 31.9024C79.0786 32.3774 78.8822 32.8145 78.5484 33.1185C78.2146 33.4415 77.7825 33.6315 77.2916 33.6315H71.3808V29.9263H77.2916C77.7825 29.9263 78.2342 30.1163 78.5484 30.4393C78.8822 30.7623 79.0786 31.1804 79.0786 31.6554V31.9024ZM65.8039 24.473C65.1755 23.8649 64.3311 23.5039 63.3885 23.5039H58.9112C57.9686 23.5039 57.1242 23.8839 56.4958 24.473C55.8674 25.081 55.4943 25.898 55.4943 26.8101V34.9996H56.9082V30.3633H65.3915V34.9996H66.8054V26.8101C66.8054 25.898 66.4323 25.062 65.8039 24.473ZM65.3915 28.9952H56.9082V26.8101C56.9082 26.2781 57.1242 25.803 57.4973 25.442C57.8508 25.1 58.3614 24.872 58.9112 24.872H63.3885C63.9383 24.872 64.4293 25.081 64.8024 25.442C65.1558 25.784 65.3915 26.2781 65.3915 26.8101V28.9952ZM1.43316 23.5229H0.0192871V34.9996H1.43316V25.594L9.91643 34.9806V34.9996H11.3303V23.5229H9.91643V32.9095L1.43316 23.5229ZM15.6898 24.473C15.0614 25.081 14.6883 25.898 14.6883 26.8101V34.9996H16.1021V30.3633H24.5854V34.9996H25.9993V26.8101C25.9993 25.898 25.6065 25.081 24.9978 24.473C24.3694 23.8649 23.525 23.5039 22.5824 23.5039H18.1051C17.1625 23.5039 16.2985 23.8649 15.6898 24.473ZM16.1021 26.8101C16.1021 26.2781 16.3378 25.803 16.6913 25.442C17.0447 25.1 17.5553 24.872 18.1051 24.872H22.5824C23.1323 24.872 23.6232 25.081 23.9963 25.442C24.3498 25.784 24.5854 26.2781 24.5854 26.8101V28.9952H16.1021V26.8101ZM30.4569 23.5039H29.75V24.1879V34.9996H31.1639V30.3633H37.6441C38.194 30.3633 38.6849 30.5913 39.058 30.9333C39.4115 31.2754 39.6471 31.7694 39.6471 32.3014V34.9996H41.061V32.3014C41.061 31.3894 40.6683 30.5723 40.0595 29.9643C39.9613 29.8693 39.8435 29.7743 39.7257 29.6793C39.8435 29.5843 39.9613 29.4893 40.0595 29.3943C40.6879 28.7862 41.061 27.9692 41.061 27.0571V26.8101C41.061 25.898 40.6683 25.081 40.0595 24.473C39.4311 23.8649 38.5867 23.5039 37.6441 23.5039H30.4569ZM31.1639 24.872H37.6441C38.194 24.872 38.6849 25.081 39.058 25.442C39.4115 25.784 39.6471 26.2781 39.6471 26.8101V27.0571C39.6471 27.5891 39.4311 28.0642 39.058 28.4252C38.7045 28.7672 38.194 28.9952 37.6441 28.9952H31.1639V24.872ZM53.079 23.5039H43.1818V24.872H47.4235V34.9996H48.8373V24.872H53.079V23.5039Z" fill="#6D6E71"/>
<path d="M116.899 14.5929L110.89 8.77852H105.156L107.984 6.06136V0L104.901 2.98318L101.916 0.114007L98.9312 2.98318L95.8481 0V6.06136L98.6759 8.77852H92.9418L86.9329 14.5929V26.2025C89.9374 29.1097 92.9222 31.9979 95.9267 34.905H101.916H107.905C110.91 31.9979 113.895 29.1097 116.899 26.2025V14.5929ZM113.993 15.5809V25.4425C111.44 27.9126 108.868 30.4018 106.315 32.8719L112.402 25.4425V15.5809L109.084 10.8306L113.993 15.5809Z" fill="#D51920"/>
</svg>
