<svg width="43" height="15" viewBox="0 0 43 15" fill="none" xmlns="http://www.w3.org/2000/svg">
<path d="M6.15533 9.98182H4.30078V15H0.873509V0.781819H6.47351C8.15836 0.781819 9.47654 1.15758 10.4281 1.90909C11.3796 2.65454 11.8553 3.71212 11.8553 5.08182C11.8553 6.0697 11.6523 6.89091 11.2462 7.54545C10.8462 8.19394 10.222 8.71818 9.37351 9.11818L12.3371 14.8545V15H8.66442L6.15533 9.98182ZM4.30078 7.33636H6.47351C7.12199 7.33636 7.60987 7.16667 7.93714 6.82727C8.27048 6.48182 8.43714 6.00303 8.43714 5.39091C8.43714 4.77879 8.27048 4.3 7.93714 3.95455C7.60381 3.60303 7.11593 3.42727 6.47351 3.42727H4.30078V7.33636ZM22.0022 12.3455H17.3022L16.484 15H12.8204L18.0295 0.781819H21.2567L26.5113 15H22.8295L22.0022 12.3455ZM18.1204 9.7H21.1749L19.6477 4.76364L18.1204 9.7ZM32.0532 0.781819L35.235 10.6727L38.3987 0.781819H42.9077V15H39.4714V11.6818L39.7987 4.88182L36.3623 15H34.0987L30.6532 4.87273L30.9805 11.6818V15H27.5532V0.781819H32.0532Z" fill="#C687DC"/>
</svg>
