<svg width="25" height="16" viewBox="0 0 25 16" fill="none" xmlns="http://www.w3.org/2000/svg">
<path d="M9.34879 9.44545H10.7942V11.9818H9.34879V15H6.05788V11.9818H0.557884L0.357884 9.97273L6.05788 0.809091V0.781819H9.34879V9.44545ZM3.49425 9.44545H6.05788V5.07273L5.84879 5.4L3.49425 9.44545ZM24.0854 13.2455C23.5581 13.8273 22.7854 14.297 21.7672 14.6545C20.749 15.0121 19.6369 15.1909 18.4308 15.1909C16.5642 15.1909 15.0732 14.6242 13.9581 13.4909C12.849 12.3515 12.2551 10.7636 12.1763 8.72727L12.1672 7.5C12.1672 6.1 12.4126 4.87879 12.9036 3.83636C13.4005 2.78788 14.1096 1.98182 15.0308 1.41818C15.952 0.854545 17.0187 0.572727 18.2308 0.572727C20.0005 0.572727 21.3763 0.978787 22.3581 1.79091C23.3399 2.60303 23.9126 3.81212 24.0763 5.41818H20.7672C20.652 4.62424 20.3975 4.05758 20.0036 3.71818C19.6157 3.37879 19.0642 3.20909 18.349 3.20909C17.4884 3.20909 16.8248 3.57576 16.3581 4.30909C15.8914 5.03636 15.6551 6.07576 15.649 7.42727V8.29091C15.649 9.70909 15.8914 10.7758 16.3763 11.4909C16.8611 12.2 17.6217 12.5545 18.6581 12.5545C19.5551 12.5545 20.2217 12.3576 20.6581 11.9636V9.75455H18.2672V7.4H24.0854V13.2455Z" fill="#FFCE6C"/>
</svg>
