<svg width="27" height="34" viewBox="0 0 27 34" fill="none" xmlns="http://www.w3.org/2000/svg">
<path d="M0 3.375V30.375C0 32.2363 1.51369 33.75 3.375 33.75H23.625C25.4863 33.75 27 32.2363 27 30.375V10.125C27.0002 9.90337 26.9567 9.68388 26.8718 9.47914C26.787 9.2744 26.6625 9.08844 26.5056 8.93194L18.0681 0.494439C17.9116 0.33743 17.7257 0.212913 17.5209 0.128057C17.3162 0.0432002 17.0966 -0.000319695 16.875 1.76795e-06H3.375C1.51369 1.76795e-06 0 1.51369 0 3.375ZM23.625 10.8236L23.6267 30.375H3.375V3.375H16.1764L23.625 10.8236Z" fill="#705DC5"/>
<path d="M6.75 6.75H10.125V13.5H6.75V6.75ZM13.5 6.75H16.875V13.5H13.5V6.75Z" fill="#705DC5"/>
</svg>
