<svg width="34" height="34" viewBox="0 0 34 34" fill="none" xmlns="http://www.w3.org/2000/svg">
<path d="M17 0C13.6377 0 10.3509 0.997032 7.55531 2.86502C4.75968 4.733 2.58074 7.38804 1.29406 10.4944C0.00736583 13.6007 -0.329291 17.0189 0.326658 20.3165C0.982606 23.6142 2.6017 26.6433 4.97919 29.0208C7.35668 31.3983 10.3858 33.0174 13.6835 33.6733C16.9811 34.3293 20.3993 33.9926 23.5056 32.7059C26.612 31.4193 29.267 29.2403 31.135 26.4447C33.003 23.6491 34 20.3623 34 17C34 14.7675 33.5603 12.5569 32.706 10.4944C31.8516 8.43184 30.5994 6.55778 29.0208 4.97918C27.4422 3.40059 25.5682 2.14838 23.5056 1.29405C21.4431 0.439718 19.2325 0 17 0ZM17 30.6C14.3102 30.6 11.6808 29.8024 9.44425 28.308C7.20774 26.8136 5.4646 24.6896 4.43525 22.2045C3.40589 19.7194 3.13657 16.9849 3.66133 14.3468C4.18609 11.7086 5.48136 9.28534 7.38335 7.38335C9.28535 5.48135 11.7086 4.18608 14.3468 3.66132C16.9849 3.13656 19.7194 3.40589 22.2045 4.43524C24.6896 5.46459 26.8136 7.20773 28.308 9.44424C29.8024 11.6807 30.6 14.3102 30.6 17C30.6 20.6069 29.1672 24.0662 26.6167 26.6166C24.0662 29.1671 20.6069 30.6 17 30.6ZM17 6.8C16.5491 6.8 16.1167 6.9791 15.7979 7.29792C15.4791 7.61673 15.3 8.04913 15.3 8.5V16.014L11.73 18.071C11.4025 18.2566 11.1459 18.5456 11.0003 18.8927C10.8548 19.2399 10.8286 19.6255 10.9258 19.9892C11.023 20.3528 11.2382 20.6739 11.5376 20.9021C11.837 21.1303 12.2036 21.2526 12.58 21.25C12.8778 21.2521 13.1709 21.1758 13.43 21.029L17.85 18.479L18.003 18.326L18.275 18.105C18.3415 18.0208 18.3985 17.9296 18.445 17.833C18.5004 17.7417 18.546 17.6449 18.581 17.544C18.6272 17.4359 18.6559 17.3211 18.666 17.204L18.7 17V8.5C18.7 8.04913 18.5209 7.61673 18.2021 7.29792C17.8833 6.9791 17.4509 6.8 17 6.8Z" fill="white"/>
</svg>
