<?xml version="1.0" encoding="utf-8"?>
<!-- Generator: Adobe Illustrator 24.1.0, SVG Export Plug-In . SVG Version: 6.00 Build 0)  -->
<svg version="1.1" id="Layer_1" xmlns="http://www.w3.org/2000/svg" xmlns:xlink="http://www.w3.org/1999/xlink" x="0px" y="0px"
	 viewBox="0 0 33 34" style="enable-background:new 0 0 33 34;" xml:space="preserve">
<desc>Created with Sketch.</desc>
<g>
	<path d="M13.6,16.9h-1.5v-1.5c0-0.2-0.2-0.4-0.4-0.4h-1.5c-0.2,0-0.4,0.2-0.4,0.4v1.5H8.4C8.2,16.9,8,17,8,17.3v1.5
		c0,0.2,0.2,0.4,0.4,0.4h1.5v1.5c0,0.2,0.2,0.4,0.4,0.4h1.5c0.2,0,0.4-0.2,0.4-0.4v-1.5h1.5c0.2,0,0.4-0.2,0.4-0.4v-1.5
		C14,17,13.8,16.9,13.6,16.9z M12.9,18.2h-1.3c-0.2,0-0.3,0.1-0.3,0.3v1.3h-0.7v-1.3c0-0.2-0.1-0.3-0.3-0.3H8.9v-0.7h1.3
		c0.2,0,0.3-0.1,0.3-0.3v-1.3h0.7v1.3c0,0.2,0.1,0.3,0.3,0.3h1.3V18.2z" fill="#fff" />
	<path d="M30.2,17.2c-0.3-3.1-3.3-6.1-6.4-6.4c-0.3,0-0.5,0-0.8,0h-5V9h-0.9h-0.9h-0.9v1.8h-5c-0.3,0-0.5,0-0.8,0
		c-3.1,0.3-6.1,3.3-6.4,6.4c-0.5,4,2.4,7.6,6.4,8c1.6,0.2,3.3-0.2,4.6-1c0.6-0.4,1.3-0.6,2-0.7c0.4,0,0.7,0,1.1,0
		c0.7,0.1,1.4,0.3,2,0.7c3.4,2.1,7.9,1.1,10-2.4C30,20.5,30.4,18.9,30.2,17.2z M16.2,9.9h0.9v0.9h-0.9V9.9z M26.5,21.3
		c-1.9,1.8-4.9,2.2-7.3,0.9c-0.7-0.4-1.4-0.6-2.2-0.7c-0.2,0-0.3,0-0.5,0c-0.2,0-0.4,0-0.6,0c-0.8,0.1-1.5,0.3-2.2,0.7
		c-2.7,1.5-6.2,0.7-7.9-1.6c-0.7-1-1-2.1-0.8-3.2c0.3-2.1,2.6-4.2,5.1-4.4c0.2,0,0.4,0,0.6,0h11.5c0.2,0,0.4,0,0.6,0
		c2.4,0.2,4.8,2.3,5.1,4.4C28.2,18.8,27.6,20.3,26.5,21.3z" fill="#fff" />
	<path d="M21.5,17c0.8,0,1.5-0.7,1.5-1.5c0-0.8-0.7-1.5-1.5-1.5S20,14.7,20,15.5C20,16.3,20.7,17,21.5,17z M21.5,14.8
		c0.4,0,0.8,0.3,0.8,0.8c0,0.4-0.3,0.8-0.8,0.8c-0.4,0-0.8-0.3-0.8-0.8C20.8,15.1,21.1,14.8,21.5,14.8z" fill="#fff" />
	<path d="M21.5,18c-0.8,0-1.5,0.7-1.5,1.5c0,0.8,0.7,1.5,1.5,1.5s1.5-0.7,1.5-1.5C23,18.7,22.3,18,21.5,18z M21.5,20.3
		c-0.4,0-0.8-0.3-0.8-0.8c0-0.4,0.3-0.8,0.8-0.8s0.8,0.3,0.8,0.8C22.3,19.9,21.9,20.3,21.5,20.3z" fill="#fff" />
	<path d="M18.5,16c-0.8,0-1.5,0.7-1.5,1.5c0,0.8,0.7,1.5,1.5,1.5s1.5-0.7,1.5-1.5C20,16.7,19.3,16,18.5,16z M18.5,18.3
		c-0.4,0-0.8-0.3-0.8-0.8c0-0.4,0.3-0.8,0.8-0.8s0.8,0.3,0.8,0.8C19.3,17.9,18.9,18.3,18.5,18.3z" fill="#fff" />
	<path d="M24.5,16c-0.8,0-1.5,0.7-1.5,1.5c0,0.8,0.7,1.5,1.5,1.5s1.5-0.7,1.5-1.5C26,16.7,25.3,16,24.5,16z M24.5,18.3
		c-0.4,0-0.8-0.3-0.8-0.8c0-0.4,0.3-0.8,0.8-0.8s0.8,0.3,0.8,0.8C25.3,17.9,24.9,18.3,24.5,18.3z" fill="#fff" />
</g>
</svg>
