<?xml version="1.0" encoding="utf-8"?>
<!-- Generator: Adobe Illustrator 24.1.0, SVG Export Plug-In . SVG Version: 6.00 Build 0)  -->
<svg version="1.1" id="Layer_1" xmlns="http://www.w3.org/2000/svg" xmlns:xlink="http://www.w3.org/1999/xlink" x="0px" y="0px"
	 viewBox="0 0 33 34" style="enable-background:new 0 0 33 34;" xml:space="preserve">
<desc>Created with Sketch.</desc>
<g id="Combined-Shape">
	<path id="path-1_1_" d="M19,9c1.7,0,3,1.3,3,3v3.1l5.4-3.9c0.7-0.5,1.6,0,1.6,0.8v10c0,0.8-0.9,1.3-1.6,0.8L22,18.9V22
		c0,1.7-1.3,3-3,3H8c-1.7,0-3-1.3-3-3V12c0-1.7,1.3-3,3-3H19z M19,11H8c-0.6,0-1,0.4-1,1v10c0,0.6,0.4,1,1,1h11c0.6,0,1-0.4,1-1V12
		C20,11.4,19.6,11,19,11z M27,13.9L22.7,17l4.3,3.1V13.9z" fill="#fff" />
</g>
</svg>
