<svg width="41" height="34" viewBox="0 0 41 34" fill="none" xmlns="http://www.w3.org/2000/svg">
<path d="M20.2146 22.6709C19.1147 22.6709 18.0394 23.0032 17.1248 23.6256C16.2102 24.248 15.4974 25.1327 15.0764 26.1677C14.6555 27.2028 14.5453 28.3418 14.7599 29.4406C14.9745 30.5394 15.5042 31.5487 16.282 32.3409C17.0598 33.1331 18.0508 33.6726 19.1296 33.8912C20.2085 34.1097 21.3267 33.9975 22.343 33.5688C23.3592 33.1401 24.2278 32.414 24.8389 31.4825C25.45 30.551 25.7762 29.4558 25.7762 28.3355C25.7762 26.8331 25.1903 25.3923 24.1473 24.33C23.1043 23.2677 21.6897 22.6709 20.2146 22.6709ZM20.2146 30.2236C19.848 30.2236 19.4896 30.1129 19.1847 29.9054C18.8798 29.698 18.6422 29.4031 18.5019 29.058C18.3616 28.713 18.3249 28.3334 18.3964 27.9671C18.4679 27.6008 18.6445 27.2644 18.9038 27.0003C19.163 26.7363 19.4934 26.5564 19.853 26.4836C20.2126 26.4107 20.5853 26.4481 20.9241 26.591C21.2628 26.7339 21.5524 26.9759 21.7561 27.2865C21.9598 27.597 22.0685 27.962 22.0685 28.3355C22.0685 28.8362 21.8732 29.3165 21.5255 29.6706C21.1778 30.0247 20.7063 30.2236 20.2146 30.2236ZM20.2146 15.1182C16.7752 15.1303 13.4787 16.5208 11.038 18.989C10.6928 19.3428 10.499 19.8213 10.499 20.3202C10.499 20.819 10.6928 21.2976 11.038 21.6513C11.3854 22.003 11.8552 22.2004 12.345 22.2004C12.8348 22.2004 13.3046 22.003 13.652 21.6513C14.513 20.7721 15.5359 20.0746 16.662 19.5986C17.7882 19.1227 18.9954 18.8777 20.2146 18.8777C21.4339 18.8777 22.6411 19.1227 23.7673 19.5986C24.8934 20.0746 25.9163 20.7721 26.7773 21.6513C27.1196 22.0071 27.586 22.2107 28.075 22.2178C28.4511 22.2398 28.8249 22.1446 29.1466 21.9449C29.4683 21.7451 29.7226 21.4502 29.8756 21.0996C30.0286 20.7489 30.0731 20.3591 30.0031 19.982C29.9332 19.605 29.7521 19.2586 29.4839 18.989C28.2641 17.7555 26.8177 16.7787 25.2273 16.1146C23.6369 15.4504 21.9335 15.1119 20.2146 15.1182ZM20.2146 7.56554C14.8088 7.58017 9.62647 9.76473 5.79162 13.6455C5.61877 13.8215 5.48166 14.0305 5.38811 14.2605C5.29457 14.4906 5.24642 14.7371 5.24642 14.9861C5.24642 15.4889 5.44253 15.9711 5.79162 16.3267C6.14071 16.6822 6.61418 16.882 7.10786 16.882C7.60155 16.882 8.07501 16.6822 8.4241 16.3267C11.5525 13.1443 15.7932 11.3568 20.2146 11.3568C24.6361 11.3568 28.8768 13.1443 32.0052 16.3267C32.1784 16.5017 32.3838 16.6401 32.6097 16.7341C32.8356 16.8281 33.0774 16.8757 33.3214 16.8742C33.5654 16.8757 33.8073 16.8281 34.0331 16.7341C34.259 16.6401 34.4644 16.5017 34.6376 16.3267C34.8114 16.1511 34.9493 15.9423 35.0434 15.7122C35.1376 15.4821 35.186 15.2353 35.186 14.9861C35.186 14.7368 35.1376 14.49 35.0434 14.2599C34.9493 14.0298 34.8114 13.821 34.6376 13.6455C30.8028 9.76473 25.6205 7.58017 20.2146 7.56554ZM39.8841 8.30193C37.3016 5.67 34.2353 3.58215 30.8604 2.15767C27.4854 0.733188 23.8679 0 20.2146 0C16.5614 0 12.9439 0.733188 9.56891 2.15767C6.19394 3.58215 3.12764 5.67 0.545204 8.30193C0.196116 8.65748 0 9.13971 0 9.64253C0 10.1454 0.196116 10.6276 0.545204 10.9831C0.894292 11.3387 1.36776 11.5384 1.86144 11.5384C2.35513 11.5384 2.82859 11.3387 3.17768 10.9831C7.69698 6.38257 13.825 3.7982 20.2146 3.7982C26.6042 3.7982 32.7323 6.38257 37.2516 10.9831C37.4239 11.1601 37.629 11.3006 37.8549 11.3964C38.0808 11.4923 38.3231 11.5417 38.5678 11.5417C38.8126 11.5417 39.0549 11.4923 39.2808 11.3964C39.5067 11.3006 39.7117 11.1601 39.8841 10.9831C40.0578 10.8076 40.1957 10.5988 40.2899 10.3687C40.384 10.1386 40.4324 9.89179 40.4324 9.64253C40.4324 9.39327 40.384 9.14647 40.2899 8.91638C40.1957 8.68629 40.0578 8.47746 39.8841 8.30193Z" fill="white"/>
</svg>
