<?xml version="1.0" encoding="utf-8"?>
<!-- Generator: Adobe Illustrator 24.1.0, SVG Export Plug-In . SVG Version: 6.00 Build 0)  -->
<svg version="1.1" id="Layer_1" xmlns="http://www.w3.org/2000/svg" xmlns:xlink="http://www.w3.org/1999/xlink" x="0px" y="0px"
	 viewBox="0 0 33 34" style="enable-background:new 0 0 33 34;" xml:space="preserve">
<desc>Created with Sketch.</desc>
<g id="Combined-Shape">
	<path id="path-1_1_" d="M15.3,13.3l0.3,0c1.6,0.1,3.1,0.9,4,2.2c0.3,0.4,0.2,1-0.2,1.3c-0.4,0.3-1,0.2-1.3-0.2
		c-0.6-0.9-1.6-1.4-2.7-1.5s-2.1,0.3-2.9,1.1l0,0L9.8,19c-1.4,1.4-1.4,3.7,0,5.1c1.4,1.4,3.7,1.4,5.1,0.1l0,0l1.6-1.6
		c0.4-0.4,0.9-0.4,1.3,0s0.4,0.9,0,1.3l0,0l-1.6,1.6c-2.2,2.1-5.6,2.1-7.7-0.1s-2.2-5.6-0.1-7.7l0,0l2.7-2.7
		c1.1-1.1,2.7-1.7,4.3-1.6L15.3,13.3z M17.7,8.5c2.2-2.1,5.6-2.1,7.7,0.1s2.2,5.6,0.1,7.7l0,0l-2.7,2.7c-1.1,1.1-2.7,1.7-4.3,1.6
		s-3.1-0.9-4-2.2c-0.3-0.4-0.2-1,0.2-1.3c0.4-0.3,1-0.2,1.3,0.2c0.6,0.9,1.6,1.4,2.7,1.5c1.1,0.1,2.1-0.3,2.9-1.1l0,0l2.7-2.7
		c1.4-1.4,1.4-3.7,0-5.1c-1.4-1.4-3.7-1.4-5.1-0.1l0,0l-1.6,1.6c-0.4,0.4-0.9,0.4-1.3,0c-0.4-0.4-0.4-0.9,0-1.3l0,0L17.7,8.5z" fill="#fff"/>
</g>
</svg>
