<svg width="288" height="290" viewBox="0 0 288 290" fill="none" xmlns="http://www.w3.org/2000/svg">
<g filter="url(#filter0_d)">
<path d="M87.7255 142.837C78.3613 143.908 69.2646 145.335 60.6139 147.118C3.26918 158.623 3.26919 177.173 3.18 178.154C3.18 178.867 3.09082 221.497 3.09082 221.318C3.09082 230.237 3.09082 235.944 3.09082 243.882C3.09082 226.045 40.1909 213.738 87.7255 208.298V142.837Z" fill="#93CEA3"/>
<path d="M127.055 217.216C62.6651 214.897 3.18 201.341 3.18 178.51L3.09082 243.882C3.09082 265.91 62.13 280.268 127.055 282.765V217.216Z" fill="#D2F6DE"/>
<path d="M9.06599 197.952L8.97681 243.971C8.97681 252.265 25.4757 261.629 54.7277 268.228V214.897C36.8019 211.151 19.8571 205.8 9.06599 197.952Z" fill="#6CB98F"/>
<path d="M59.6328 215.878V222.032C83.5339 226.58 108.238 228.364 121.258 228.988V222.834C108.148 222.21 83.5339 220.426 59.6328 215.878Z" fill="#6CB98F"/>
<path d="M59.6328 234.25C83.5339 238.798 108.238 240.582 121.258 241.206V235.052C108.238 234.428 83.5339 232.645 59.6328 228.096V234.25Z" fill="#6CB98F"/>
<path d="M59.6328 246.556C83.5339 251.105 108.238 252.888 121.258 253.513V247.359C108.238 246.735 83.5339 244.951 59.6328 240.403V246.556Z" fill="#6CB98F"/>
<path d="M59.6328 258.775C83.5339 263.324 108.238 265.107 121.258 265.731V259.578C108.238 258.954 83.5339 257.17 59.6328 252.622V258.775Z" fill="#6CB98F"/>
<path d="M59.6328 269.209C76.5776 272.776 97.268 275.452 121.258 276.611V271.884C108.238 271.26 83.5339 269.477 59.6328 264.928V269.209Z" fill="#6CB98F"/>
<path d="M270.461 161.744C258.689 155.055 242.369 150.507 229.17 147.742C194.656 140.429 150.421 137.932 109.397 140.786V206.335C168.882 202.322 237.464 208.386 270.372 227.115C280.182 232.644 284.82 238.53 284.82 244.327C284.82 244.06 284.82 243.792 284.82 243.435C284.82 236.925 284.909 181.453 284.909 179.937C284.909 171.375 277.953 166.024 270.461 161.744Z" fill="#93CEA3"/>
<path d="M175.036 146.493C164.601 145.869 153.899 145.512 143.108 145.512C133.744 145.512 124.38 145.78 115.194 146.315V200.092C124.915 199.557 134.725 199.29 144.624 199.29C155.059 199.29 165.226 199.557 174.946 200.092V146.493H175.036Z" fill="#58A57B"/>
<path d="M225.603 153.003C215.257 150.863 203.842 149.168 191.891 148.009V201.519C203.931 202.678 215.257 204.284 225.603 206.335V153.003Z" fill="#58A57B"/>
<path d="M267.608 166.827C263.148 164.33 258.065 162.101 252.803 160.228V213.113C260.651 215.7 267.518 218.732 273.315 221.942C275.367 223.102 277.329 224.35 279.023 225.599L279.112 179.937C279.023 175.3 275.634 171.376 267.608 166.827Z" fill="#58A57B"/>
<path d="M284.909 178.956C284.909 185.288 279.023 190.104 279.38 189.747C271.799 197.06 258.778 202.857 242.458 207.227V272.331C248.077 270.815 253.338 269.031 258.243 267.158C268.41 263.234 284.463 255.386 284.731 244.595C284.82 244.506 284.731 256.634 284.909 178.956Z" fill="#D2F6DE"/>
<path d="M248.344 211.686C261.454 207.852 271.71 203.214 279.023 197.774C279.023 197.774 278.934 242.187 278.934 244.506C278.756 249.768 270.016 256.367 256.192 261.718C253.695 262.699 251.109 263.591 248.344 264.483V211.686Z" fill="#6CB98F"/>
</g>
<ellipse opacity="0.1" cx="187.153" cy="243.701" rx="53.1527" ry="10.201" fill="#505050"/>
<path d="M177.902 189.397L187.69 2.63379" stroke="#F14F4F" stroke-width="5" stroke-miterlimit="10" stroke-linecap="round"/>
<path d="M146.704 189.986C144.186 189.986 142.294 192.285 142.779 194.757L152.44 243.934C152.808 245.81 154.453 247.163 156.365 247.163H217.985C220.593 247.163 222.503 244.709 221.863 242.181L209.406 193.004C208.957 191.229 207.359 189.986 205.529 189.986H146.704Z" fill="#FFCE6C"/>
<path d="M163.123 247.164L150.118 192.05" stroke="white" stroke-width="0.7205" stroke-miterlimit="10"/>
<path d="M173.469 247.164L160.759 192.049" stroke="white" stroke-width="0.7205" stroke-miterlimit="10"/>
<path d="M183.814 247.164L171.104 192.049" stroke="white" stroke-width="0.7205" stroke-miterlimit="10"/>
<path d="M194.454 247.164L181.744 192.049" stroke="white" stroke-width="0.7205" stroke-miterlimit="10"/>
<path d="M204.799 247.164L192.09 192.049" stroke="white" stroke-width="0.7205" stroke-miterlimit="10"/>
<path d="M215.44 247.164L202.435 192.049" stroke="white" stroke-width="0.7205" stroke-miterlimit="10"/>
<path d="M209.824 182.322H145.389C141.546 182.322 138.295 185.564 138.295 189.396V197.353H216.918V189.396C216.918 185.564 213.962 182.322 209.824 182.322Z" fill="#F14F4F"/>
<defs>
<filter id="filter0_d" x="0.0908203" y="139.634" width="287.818" height="150.132" filterUnits="userSpaceOnUse" color-interpolation-filters="sRGB">
<feFlood flood-opacity="0" result="BackgroundImageFix"/>
<feColorMatrix in="SourceAlpha" type="matrix" values="0 0 0 0 0 0 0 0 0 0 0 0 0 0 0 0 0 0 127 0"/>
<feOffset dy="4"/>
<feGaussianBlur stdDeviation="1.5"/>
<feColorMatrix type="matrix" values="0 0 0 0 0 0 0 0 0 0 0 0 0 0 0 0 0 0 0.05 0"/>
<feBlend mode="normal" in2="BackgroundImageFix" result="effect1_dropShadow"/>
<feBlend mode="normal" in="SourceGraphic" in2="effect1_dropShadow" result="shape"/>
</filter>
</defs>
</svg>
