<svg width="560" height="332" viewBox="0 0 560 332" fill="none" xmlns="http://www.w3.org/2000/svg">
<path opacity="0.1" d="M256.781 329.581C175.015 328.815 68.5543 321.153 68.0055 310.809C68.0055 300.465 221.66 296.634 256.781 296.634C291.902 296.634 474.641 298.932 472.994 310.809C471.348 322.685 338.547 330.347 256.781 329.581Z" fill="black"/>
<path d="M410.332 232.134H131.261V191.345C131.261 154.534 161.162 124.634 197.973 124.634H343.754C380.565 124.634 410.465 154.534 410.465 191.345V219.917L410.332 232.134Z" fill="#044F5B"/>
<path d="M423.361 304.557C423.502 306.673 421.823 308.468 419.702 308.468C417.961 308.468 416.46 307.244 416.11 305.538L406.479 258.634H420.299L423.361 304.557Z" fill="#656565"/>
<path d="M128.731 304.557C128.59 306.673 130.269 308.468 132.39 308.468C134.131 308.468 135.632 307.244 135.982 305.538L145.614 258.634H131.793L128.731 304.557Z" fill="#656565"/>
<path opacity="0.5" d="M428.273 260.134H380.698V188.82C380.698 177.923 389.601 169.019 400.498 169.019H408.472C419.369 169.019 428.273 177.923 428.273 188.82V260.134Z" fill="white"/>
<path d="M434.005 270.634H386.005V183.476C386.005 175.308 394.989 168.634 405.983 168.634H414.028C425.022 168.634 434.005 175.308 434.005 183.476V270.634Z" fill="#10727D"/>
<path opacity="0.5" d="M160.896 262.134H113.321V188.82C113.321 177.923 122.225 169.019 133.122 169.019H141.095C151.992 169.019 160.896 177.923 160.896 188.82V262.134Z" fill="white"/>
<path d="M156.005 270.634H108.005V183.561C108.005 175.301 116.989 168.634 127.983 168.634H136.028C147.022 168.634 156.005 175.301 156.005 183.461V270.634Z" fill="#10727D"/>
<path d="M388.005 239.634H156.005V270.634H388.005V239.634Z" fill="#044F5B"/>
<path d="M376.005 219.634H166.005C159.93 219.634 155.005 224.559 155.005 230.634V239.634H387.005V230.634C387.005 224.559 382.081 219.634 376.005 219.634Z" fill="#10727D"/>
<path d="M46.5055 299.06C66.6639 299.06 83.0055 296.821 83.0055 294.06C83.0055 291.299 66.6639 289.06 46.5055 289.06C26.3471 289.06 10.0055 291.299 10.0055 294.06C10.0055 296.821 26.3471 299.06 46.5055 299.06Z" fill="black" fill-opacity="0.1"/>
<path d="M43.7055 226.96H34.7055C34.7055 226.96 -10.0945 134.86 2.10551 120.66C17.8055 102.36 38.1055 154.66 43.7055 226.96Z" fill="#044F5B"/>
<path d="M40.9055 226.96H39.4055L11.0055 133.76C10.9055 133.36 11.1055 132.96 11.5055 132.86C11.9055 132.76 12.3055 132.96 12.4055 133.36L40.9055 226.96Z" fill="#002E3C"/>
<path d="M49.1055 226.96H58.1055C58.1055 226.96 102.905 134.86 90.7055 120.66C75.1055 102.36 54.7055 154.66 49.1055 226.96Z" fill="#044F5B"/>
<path d="M51.9055 226.96H53.4055L81.9055 133.76C82.0055 133.36 81.8055 132.96 81.4055 132.86C81.0055 132.76 80.6055 132.96 80.5055 133.36L51.9055 226.96Z" fill="#002E3C"/>
<path d="M51.7055 226.96H43.7055C26.1055 142.26 33.1055 71.36 51.0055 84.66C68.9055 97.96 51.7055 226.96 51.7055 226.96Z" fill="#044F5B"/>
<path d="M47.1056 101.86L46.1056 226.96H44.7056L45.7056 101.86C45.7056 101.46 46.0056 101.16 46.4056 101.16C46.7056 101.16 47.1056 101.56 47.1056 101.86Z" fill="#002E3C"/>
<path d="M81.0055 226.06L79.7036 231.016L79.4032 231.926L78.2015 236.376L77.9011 237.286L66.1843 281.785L65.8839 282.695L64.6822 287.145L64.3818 288.055L62.7795 293.921C51.4633 295.337 40.3474 295.539 29.3317 293.921L27.7294 288.055L27.429 287.145L26.2272 282.695L25.9268 281.785L14.1099 237.387L13.8095 236.477L12.6078 232.027L12.3074 231.117L11.0055 226.161H81.0055V226.06Z" fill="#F14F4F"/>
<path d="M80.0055 231.86L79.8025 232.76H12.2085L12.0055 231.86H80.0055Z" fill="#DF9188"/>
<path d="M78.5846 237.16L78.2801 238.16H13.7309L13.4264 237.16H78.5846Z" fill="#DF9188"/>
<path d="M66.304 282.06L65.9996 282.96H26.0115L25.707 282.06H66.304Z" fill="#DF9188"/>
<path d="M64.7816 287.36L64.5786 288.36H27.4324L27.2294 287.36H64.7816Z" fill="#DF9188"/>
<path d="M330.363 301.534L337.437 307.171L343.459 306.41L347.182 301.521L339.519 291.634L330.363 301.534Z" fill="#F5BE86"/>
<path d="M279.032 284.492L276.019 293.003L278.785 298.39L284.667 300.258L291.401 289.782L279.032 284.492Z" fill="#F5BE86"/>
<path d="M290.608 296.12C290.431 295.356 289.832 294.851 289.067 294.858C287.536 294.87 285.068 294.636 282.925 292.528C279.753 289.408 279.221 286.862 279.221 286.862C279.221 286.862 272.957 290.23 269.266 296.298C267.588 299.033 278.372 307.446 278.372 307.446L283.426 311.826C286.081 314.1 289.491 315.262 292.893 315.233L305.985 314.955C305.985 314.955 308.661 309.49 304.467 306.209C300.444 303.011 298.013 307.283 293.648 303.833C290.566 301.308 291.139 298.667 290.608 296.12Z" fill="#9F9F9F"/>
<path d="M345.259 298.599C344.531 298.533 343.797 298.962 343.541 299.703C343.103 301.143 342.073 303.421 339.535 304.809C335.517 306.866 332.983 306.576 332.983 306.576C332.983 306.576 334.323 313.576 338.904 318.875C341.051 321.362 352.391 313.637 352.391 313.637L375.466 299.533C375.466 299.533 374.126 292.533 368.776 292.316C363.426 292.098 361.44 293.754 356.843 296.841C353.303 299.209 347.794 298.888 345.259 298.599Z" fill="#9F9F9F"/>
<path d="M242.805 147.447C244.505 142.347 246.105 137.247 247.905 132.147C238.805 131.747 229.105 130.147 225.105 125.847C216.605 116.647 203.205 84.4468 203.205 84.4468C203.205 84.4468 203.305 132.247 218.205 142.147C224.705 146.547 234.205 147.647 242.805 147.447Z" fill="#BE4236"/>
<path d="M311.9 167.146C309.3 164.846 306 163.546 301.8 163.546C301 163.546 300.3 163.546 299.5 163.546C286.9 163.646 223.4 172.646 212.5 176.346C209.8 180.546 214.5 185.046 213.6 189.046C210.3 204.646 223.7 218.746 239.5 216.446C258.8 213.646 276 210.646 279.5 209.946C282 209.446 286.4 207.846 286.4 207.846C286.4 207.946 286.1 208.646 285.7 209.946C283.6 216.446 277.6 237.246 278.9 259.446C280 277.546 276.505 287.634 276.505 287.634L294.505 294.134C296.005 291.134 336.4 188.946 311.9 167.146Z" fill="#358B97"/>
<path d="M342.3 290.146L281.169 219.75C279.271 217.564 277.007 215.725 274.479 214.313L208.8 177.646C208.8 177.646 177.1 180.146 166.5 191.046C166.5 191.046 160.8 222.846 184.7 228.346C211.8 234.546 250.6 237.846 258.4 239.646C259.4 239.846 259.9 239.946 259.9 239.946C259.9 239.946 260 240.046 260.1 240.246C261.8 243.046 273.6 262.046 288.6 276.046C295.2 282.146 321.1 296.646 329.7 302.246C334.1 298.446 338.2 294.346 342.3 290.146Z" fill="#3AA1B6"/>
<path d="M129.505 89.3466C131.605 99.3466 143.905 126.047 151.705 145.147C151.805 145.447 151.905 145.647 152.005 145.947C154.205 151.547 156.105 156.447 157.105 160.047C157.505 161.447 157.905 162.747 158.205 164.147C158.905 166.647 159.505 169.047 160.005 171.447C160.105 172.047 160.305 172.647 160.405 173.147C162.705 183.147 164.005 192.047 164.505 198.547C164.805 202.447 167.005 204.547 170.905 204.647C179.305 204.847 199.705 202.246 208.405 197.046C211.195 195.394 203.244 184.58 204.905 183.546C208.815 181.114 216.155 183.949 220.405 181.547C221.506 180.924 222.782 188.091 225.905 188.546C229.478 189.067 232.506 182.863 235.005 181.547C246.905 175.247 224.705 171.147 212.805 125.947C209.605 113.947 206.005 92.9466 204.305 86.4466C202.605 79.9466 178.205 71.6466 178.205 71.6466L161.105 68.7466C161.105 68.7466 139.005 78.8466 130.805 84.5466C130.805 84.6466 130.205 86.2466 129.505 89.3466Z" fill="#D14D3D"/>
<path d="M176.905 105.046C174.905 93.4464 165.405 77.5464 160.905 71.0464C163.072 72.5464 166.805 75.4464 170.405 77.0464C174.005 78.6464 177.905 77.7131 179.405 77.0464C179.405 77.0464 194.178 101.995 195.405 117.546C196.905 136.546 216.405 173.046 221.405 182.546C217.805 186.146 209.905 188.38 206.405 189.046C204.905 187.546 199.205 177.746 194.405 172.546C188.405 166.046 179.405 119.546 176.905 105.046Z" fill="white"/>
<path d="M264.105 138.646C263.205 138.546 258.005 136.046 259.305 134.746C260.405 133.646 265.505 134.346 265.505 134.346C265.505 134.346 266.105 133.046 266.105 132.946L266.305 132.546L267.905 128.546C268.805 128.846 269.605 129.346 270.105 129.646C272.005 131.046 270.105 135.846 270.105 135.846C270.105 135.846 272.505 137.746 271.705 139.646C270.905 141.546 268.705 141.146 268.705 141.146C268.705 141.146 270.705 142.946 269.405 144.446C268.105 145.846 265.905 144.546 265.905 144.546C265.905 144.546 267.705 147.646 266.405 148.546C265.105 149.446 263.505 148.946 263.505 148.946C263.505 148.946 264.805 151.146 262.605 151.846C260.405 152.546 257.705 150.746 256.205 149.546C254.705 148.346 255.705 147.146 260.505 148.146C260.505 148.146 255.805 145.646 255.705 144.746C255.305 142.546 259.905 142.346 262.705 142.946C260.505 142.346 255.205 140.846 256.005 138.846C256.605 137.246 263.105 138.546 264.105 138.646Z" fill="#F5BE86"/>
<path d="M542.304 161.323C446.233 58.7957 350.076 247.446 254.005 144.832C254.719 132.984 257.572 129.417 266.822 123.353C358.628 187.241 450.506 8.77031 542.304 96.3164C542.304 117.956 542.304 139.683 542.304 161.323Z" fill="#FFE9BD"/>
<path d="M532.578 143.328V95.1752C546.133 105.519 547.729 105.592 559.5 117.006C558.787 140.904 559.5 151.248 559.5 174.076C554.15 164.445 547.559 154.385 532.578 143.328Z" fill="#F6D084"/>
<path d="M436.548 95.2692C407.666 107.747 378.783 127.205 349.901 137.851C349.901 136.455 349.901 135.146 349.901 133.75C378.783 122.843 407.666 103.035 436.548 90.2955C436.548 91.9534 436.548 93.6113 436.548 95.2692Z" fill="#F6D084"/>
<path d="M436.548 103.907C413.337 113.506 390.04 127.641 366.829 138.025C366.829 136.978 366.829 135.844 366.829 134.796C390.04 124.151 413.337 109.841 436.548 100.068C436.548 101.29 436.548 102.598 436.548 103.907Z" fill="#F6D084"/>
<path d="M474.069 126.857C464.732 127.206 455.396 128.951 446.059 131.569C446.059 115.601 446.059 99.6327 446.059 83.5774C455.396 79.9998 464.732 77.2948 474.069 75.986C474.069 93.0012 474.069 109.929 474.069 126.857Z" fill="white"/>
<path d="M436.548 114.64C426.601 118.48 416.74 123.192 406.793 128.078C406.793 126.856 406.793 125.635 406.793 124.413C416.74 119.439 426.601 114.64 436.548 110.714C436.548 112.023 436.548 113.331 436.548 114.64Z" fill="#F6D084"/>
<path d="M470.142 120.224C464.034 120.748 457.926 121.882 451.818 123.453C451.818 111.237 451.818 99.1081 451.818 86.8921C457.926 84.8852 464.034 83.2273 470.142 82.1802C470.142 94.8325 470.142 107.572 470.142 120.224Z" fill="#F6D084"/>
<path d="M341.612 171.707C332.275 173.801 322.939 174.761 313.602 174.15C313.602 162.632 313.602 151.114 313.602 139.683C322.939 139.334 332.275 137.415 341.612 134.448C341.612 146.839 341.612 159.229 341.612 171.707Z" fill="white"/>
<path d="M337.685 167.431C331.577 168.653 325.469 169.438 319.361 169.525C319.361 160.712 319.361 151.899 319.361 143.086C325.469 142.563 331.577 141.341 337.685 139.596C337.685 148.845 337.685 158.182 337.685 167.431Z" fill="#F6D084"/>
<path d="M525.445 107.131C510.177 97.0321 494.899 93.4103 479.566 93.9604C479.566 92.128 479.566 90.2956 479.566 88.4632C494.844 87.775 510.123 91.2122 525.445 101.173C525.445 103.735 525.445 103.379 525.445 107.131Z" fill="#F6D084"/>
<path d="M277.005 134.634C286.44 140.459 296.504 142.52 306.024 142.251C306.015 143.461 305.999 145.5 305.99 146.71C295.87 147.088 285.601 144.286 275.505 137.634C276.091 136.478 276.62 135.394 277.005 134.634Z" fill="#F6D084"/>
<path d="M525.445 96.8069C510.177 86.7079 494.899 83.0861 479.566 83.6362C479.566 81.8038 479.566 79.9714 479.566 78.139C494.844 77.4507 510.123 80.888 525.445 90.8484C525.445 93.4113 525.445 93.0546 525.445 96.8069Z" fill="#F6D084"/>
<path d="M274.402 139.52C281.737 145.092 295.583 150.294 305.966 150.002C305.956 151.234 305.939 153.499 305.93 154.731C295.584 155.116 283.341 149.437 273.02 142.662C273.808 141.092 273.614 141.09 274.402 139.52Z" fill="#F6D084"/>
<path d="M430.42 123.856C430.42 123.856 431.555 121.849 433.649 121.064C435.569 120.366 436.877 121.5 436.877 123.42C436.877 125.601 435.045 128.743 430.333 132.669C425.621 132.146 423.789 130.488 423.789 128.306C423.789 126.474 425.098 124.293 427.017 123.594C429.286 122.722 430.42 123.856 430.42 123.856Z" fill="#F6D084"/>
<path d="M260.901 150.498L271.043 121.396C271.506 120.067 270.488 118.689 269.082 118.739L232.023 120.079C231.126 120.111 230.36 120.738 230.151 121.611L222.201 154.737C221.869 156.12 223.045 157.397 224.45 157.181L259.317 151.817C260.048 151.704 260.658 151.197 260.901 150.498Z" fill="#484848"/>
<path d="M154.305 104.546C154.305 104.546 154.305 81.0464 130.905 84.4467L129.205 86.5467C129.105 86.6467 128.505 88.3467 127.805 91.6467C126.105 99.7467 124.005 117.747 129.905 146.347C134.505 168.647 143.505 172.847 158.405 171.347C164.105 170.747 170.805 169.347 178.405 167.747C184.005 165.634 184.805 163.147 184.805 163.147L184.005 151.547C184.005 151.547 183.005 147.134 178.005 147.134C169.105 146.834 157.105 147.734 155.005 148.134C155.005 148.134 154.405 117.546 154.305 104.546Z" fill="#DC5241"/>
<path d="M186.198 71.4236L184.698 79.8953C184.698 79.8953 182.505 80.6338 178.698 78.8228C171.414 75.2599 162.005 71.4236 162.005 71.4236C162.005 71.4236 162.085 65.6981 164.698 63.3228C174.698 62.3229 170.205 61.7762 180.198 66.3228C182.178 66.4811 186.357 69.2859 186.198 71.4236Z" fill="#E5CFA8"/>
<path d="M181.005 62.1338V79.6338C176.914 80.6758 173.513 80.9211 159.443 75.1338C160.443 64.1338 161.943 59.1338 163.943 51.1338L173.815 39.6338L181.005 62.1338Z" fill="#F5BE86"/>
<path d="M204.673 34.9456C204.673 34.9456 205.861 42.9422 204.752 51.1764C204.357 54.3434 205.623 58.1438 204.198 61.2316C203.881 61.9442 201.665 61.7067 201.269 62.4193C194.539 73.6621 189.551 77.7 175.299 65.4279C161.048 53.1558 162.869 52.5224 162.869 52.5224C162.869 52.5224 156.693 39.6169 161.523 31.7786C166.353 23.9402 180.208 12.2223 191.847 17.7646C204.673 23.8611 204.673 34.9456 204.673 34.9456Z" fill="#F5BE86"/>
<path d="M223.358 38.9834C223.913 35.658 226.288 24.8902 209.028 22.1983C201.269 21.0107 199.527 18.0812 196.993 13.8849C194.46 9.68864 188.838 -2.10842 178.783 1.21692C171.499 3.59217 172.132 10.8763 172.132 10.8763C172.132 10.8763 171.816 3.75052 168.49 4.70062C165.086 5.65072 169.044 10.4804 169.044 10.4804C169.044 10.4804 162.79 7.70927 158.039 10.4804C153.289 13.2515 151.309 22.7525 154.714 29.7199C158.118 36.6873 157.722 44.2089 156.852 47.2967C155.901 50.3054 154.318 56.5602 157.089 57.352C159.86 58.1437 163.265 52.7598 166.353 51.018C169.361 49.2761 173.874 46.9009 173.003 44.6048C172.132 42.3087 170.47 31.6201 176.645 32.2535C182.821 32.8869 182.821 38.35 181.792 41.9128C180.762 45.4757 184.009 45.7132 184.009 45.7132C184.009 45.7132 193.114 34.4704 192.164 29.6407C191.213 24.7319 195.964 29.6407 199.527 32.6494C203.09 35.658 204.832 36.6081 204.832 36.6081L205.386 41.8337C205.386 41.8337 207.603 45.0798 212.511 45.6341C217.42 46.1883 222.408 44.6048 223.358 38.9834Z" fill="#0B2435"/>
<path d="M191.768 41.9921C188.997 41.1212 188.363 50.3846 188.997 53.1558C189.788 56.5603 196.677 59.3314 199.052 58.0646C200.952 57.0353 202.773 50.543 203.486 47.8511C203.644 47.2177 203.327 46.5051 202.694 46.1884L191.768 41.9921Z" fill="#EDB17A" stroke="#0B2435" stroke-miterlimit="10"/>
<path d="M204.752 59.3313C205.386 59.4105 206.098 59.0146 206.573 58.4604C207.919 56.9561 208.949 52.5223 209.345 50.5429C209.503 49.9887 209.186 49.4345 208.632 49.1969L206.019 48.1677C205.623 48.0093 205.227 48.326 205.069 48.8011L204.594 51.018L202.852 50.3846" stroke="#0B2435" stroke-miterlimit="10" stroke-linejoin="round"/>
<path d="M183.771 38.9834L190.026 43.1797" stroke="#0B2435" stroke-miterlimit="10"/>
<path d="M198.735 52.1263C198.211 52.1263 197.785 51.7009 197.785 51.1762C197.785 50.6514 198.211 50.2261 198.735 50.2261C199.26 50.2261 199.685 50.6514 199.685 51.1762C199.685 51.7009 199.26 52.1263 198.735 52.1263Z" fill="#0B2435"/>
<path d="M191.53 65.982C191.53 65.982 188.205 65.5069 188.522 61.7065" stroke="#0B2435" stroke-miterlimit="10" stroke-linecap="round" stroke-linejoin="round"/>
<path d="M168.505 74.634L167.005 81.1341C167.005 81.1341 163.145 81.2843 158.505 74.6341C157.592 73.4385 156.505 71.1341 156.505 71.1341C156.505 71.1341 156.353 63.965 159.005 61.6339C159.743 60.9568 161.013 60.2264 161.505 61.1336C161.505 64.1337 159.505 63.6337 166.005 68.134C167.911 69.4534 169.896 72.7802 168.505 74.634Z" fill="#FBE6C3"/>
<path d="M181.324 147.66L211.682 146.684C211.682 146.684 212.012 143.53 217.922 140.04C222.681 137.254 223.791 135.263 225.572 136.18C227.352 137.098 225.571 140.827 223.258 142.311C227.781 140.529 231.585 140.799 233.159 143.047C235.076 145.668 237.127 155.681 233.962 159.036C228.971 164.35 216.159 161.721 211.567 160.847C206.975 159.974 189.161 166.343 185.535 168.024C181.74 169.758 181.324 147.66 181.324 147.66Z" fill="#F5BE86"/>
<path d="M189.919 144.427C189.397 143.144 188.098 142.221 186.665 142.159C183.018 141.913 174.879 141.692 175.08 144.527C175.505 151.083 179.046 167.497 178.711 170.169C178.097 174.641 191.611 170.169 192.012 167.587C192.364 165.318 192.354 150.414 189.919 144.427Z" fill="#FBE6C3"/>
<path d="M210.419 146.567L210.763 150.547L206.952 150.837L206.699 146.791C206.657 146.544 206.85 146.334 207.085 146.37L209.998 146.182C210.233 146.218 210.365 146.399 210.419 146.567Z" fill="#2E3E47"/>
<path d="M210.923 156.741L211.164 160.865C211.206 161.112 211.013 161.322 210.778 161.286L207.942 161.487C207.696 161.528 207.485 161.335 207.522 161.101L207.226 156.808L210.923 156.741Z" fill="#2E3E47"/>
<path d="M213.477 154.734C213.109 157.111 210.883 158.738 208.506 158.369C206.13 158 204.502 155.775 204.871 153.398C205.24 151.022 207.466 149.394 209.842 149.763C212.219 150.132 213.846 152.357 213.477 154.734Z" fill="#0B2435"/>
<path d="M213.008 154.661C212.679 156.779 210.697 158.228 208.579 157.9C206.462 157.571 205.012 155.588 205.341 153.471C205.669 151.354 207.652 149.904 209.77 150.232C211.887 150.561 213.337 152.544 213.008 154.661Z" stroke="#17303D" stroke-width="0.25" stroke-miterlimit="10"/>
</svg>
