<svg width="216" height="205" viewBox="0 0 216 205" fill="none" xmlns="http://www.w3.org/2000/svg">
<path d="M126.065 56.5719C120.427 52.5205 119.239 44.5864 123.291 38.9485L143.065 11.7919C147.116 6.154 155.05 4.96643 160.688 9.0179L177.123 20.8709C185.106 27.5686 185.987 35.0594 185.912 35.1791C186.036 38.4325 188.602 44.31 188.159 49.128C186.589 67.9436 181.114 95.748 154.788 131.982C128.462 168.216 102.115 184.047 83.4589 193.106C77.6257 195.868 70.2502 195.903 66.5357 197.157C66.4382 197.179 59.2886 199.111 52.3876 194.014C51.8867 193.615 51.4302 193.411 51.0712 193.185L39.4586 184.953L35.0706 181.438C29.4327 177.387 28.2452 169.453 32.2967 163.815L52.0708 136.658C56.1223 131.02 64.0342 129.735 69.6942 133.884L90.2113 148.809C102.733 138.478 114.05 127.805 126.173 111.206C136.723 96.7079 142.406 85.1617 147.8 72.3478L126.065 56.5719Z" fill="#6CB98F"/>
</svg>
