<svg width="34" height="34" viewBox="0 0 34 34" fill="none" xmlns="http://www.w3.org/2000/svg">
<path d="M13.2421 18.7H1.65526C1.21626 18.7 0.795237 18.8791 0.484815 19.1979C0.174393 19.5167 0 19.9491 0 20.4V32.3C0 32.7509 0.174393 33.1833 0.484815 33.5021C0.795237 33.8209 1.21626 34 1.65526 34H13.2421C13.6811 34 14.1021 33.8209 14.4126 33.5021C14.723 33.1833 14.8974 32.7509 14.8974 32.3V20.4C14.8974 19.9491 14.723 19.5167 14.4126 19.1979C14.1021 18.8791 13.6811 18.7 13.2421 18.7ZM11.5868 30.6H3.31053V22.1H11.5868V30.6ZM31.45 0H19.8632C19.4242 0 19.0031 0.179107 18.6927 0.497918C18.3823 0.81673 18.2079 1.24913 18.2079 1.7V13.6C18.2079 14.0509 18.3823 14.4833 18.6927 14.8021C19.0031 15.1209 19.4242 15.3 19.8632 15.3H31.45C31.889 15.3 32.31 15.1209 32.6204 14.8021C32.9309 14.4833 33.1053 14.0509 33.1053 13.6V1.7C33.1053 1.24913 32.9309 0.81673 32.6204 0.497918C32.31 0.179107 31.889 0 31.45 0ZM29.7947 11.9H21.5184V3.4H29.7947V11.9ZM31.45 18.7H19.8632C19.4242 18.7 19.0031 18.8791 18.6927 19.1979C18.3823 19.5167 18.2079 19.9491 18.2079 20.4V32.3C18.2079 32.7509 18.3823 33.1833 18.6927 33.5021C19.0031 33.8209 19.4242 34 19.8632 34H31.45C31.889 34 32.31 33.8209 32.6204 33.5021C32.9309 33.1833 33.1053 32.7509 33.1053 32.3V20.4C33.1053 19.9491 32.9309 19.5167 32.6204 19.1979C32.31 18.8791 31.889 18.7 31.45 18.7ZM29.7947 30.6H21.5184V22.1H29.7947V30.6ZM13.2421 0H1.65526C1.21626 0 0.795237 0.179107 0.484815 0.497918C0.174393 0.81673 0 1.24913 0 1.7V13.6C0 14.0509 0.174393 14.4833 0.484815 14.8021C0.795237 15.1209 1.21626 15.3 1.65526 15.3H13.2421C13.6811 15.3 14.1021 15.1209 14.4126 14.8021C14.723 14.4833 14.8974 14.0509 14.8974 13.6V1.7C14.8974 1.24913 14.723 0.81673 14.4126 0.497918C14.1021 0.179107 13.6811 0 13.2421 0ZM11.5868 11.9H3.31053V3.4H11.5868V11.9Z" fill="white"/>
</svg>
