<svg width="31" height="16" viewBox="0 0 31 16" fill="none" xmlns="http://www.w3.org/2000/svg">
<path d="M4.14524 15H0.72706V0.781819H4.14524V15Z" fill="#F14F4F"/>
<path d="M9.95313 10.1727V15H6.52585V0.781819H12.1986C13.2895 0.781819 14.2531 0.981818 15.0895 1.38182C15.9259 1.78182 16.5713 2.35152 17.0259 3.09091C17.4865 3.8303 17.7168 4.6697 17.7168 5.60909C17.7168 6.99091 17.2198 8.09697 16.2259 8.92727C15.238 9.75758 13.8774 10.1727 12.144 10.1727H9.95313ZM9.95313 7.52727H12.1986C12.8652 7.52727 13.3713 7.36364 13.7168 7.03636C14.0683 6.70303 14.244 6.23333 14.244 5.62727C14.244 4.96061 14.0652 4.4303 13.7077 4.03636C13.3501 3.63636 12.8622 3.43333 12.244 3.42727H9.95313V7.52727Z" fill="#6CB98F"/>
<path d="M26.8896 11.2182C26.8896 10.7212 26.7108 10.3333 26.3532 10.0545C26.0017 9.7697 25.3774 9.47879 24.4805 9.18182C23.5896 8.87879 22.8623 8.58788 22.2987 8.30909C20.4562 7.40606 19.535 6.16364 19.535 4.58182C19.535 3.79394 19.7623 3.1 20.2168 2.5C20.6774 1.89394 21.329 1.42424 22.1714 1.09091C23.0138 0.751515 23.9593 0.581818 25.0077 0.581818C26.0259 0.581818 26.9411 0.766666 27.7532 1.13636C28.5653 1.5 29.1956 2.01818 29.6441 2.69091C30.0926 3.36364 30.3168 4.13333 30.3168 5H26.8987C26.8987 4.41818 26.7199 3.9697 26.3623 3.65455C26.0108 3.33333 25.532 3.17273 24.9259 3.17273C24.3138 3.17273 23.829 3.30909 23.4714 3.58182C23.1199 3.84848 22.9441 4.19091 22.9441 4.60909C22.9441 4.97273 23.138 5.30303 23.5259 5.6C23.9199 5.89697 24.6077 6.20303 25.5896 6.51818C26.5714 6.83333 27.3774 7.17273 28.0077 7.53636C29.5471 8.42121 30.3168 9.64242 30.3168 11.2C30.3168 12.4424 29.8471 13.4182 28.9077 14.1273C27.9744 14.8364 26.6896 15.1909 25.0532 15.1909C23.9017 15.1909 22.8593 14.9848 21.9259 14.5727C20.9926 14.1606 20.2896 13.597 19.8168 12.8818C19.3441 12.1606 19.1077 11.3303 19.1077 10.3909H22.5441C22.5441 11.1545 22.7411 11.7182 23.135 12.0818C23.529 12.4394 24.1683 12.6182 25.0532 12.6182C25.6168 12.6182 26.0623 12.497 26.3896 12.2545C26.7229 12.0061 26.8896 11.6606 26.8896 11.2182Z" fill="#039DBC"/>
</svg>
