<svg width="34" height="34" viewBox="0 0 34 34" fill="none" xmlns="http://www.w3.org/2000/svg">
<path d="M1.7 11.9288C1.24913 11.9288 0.81673 12.1077 0.497919 12.4261C0.179107 12.7445 0 13.1763 0 13.6266V20.4177C0 20.868 0.179107 21.2999 0.497919 21.6182C0.81673 21.9366 1.24913 22.1155 1.7 22.1155C2.15087 22.1155 2.58327 21.9366 2.90208 21.6182C3.22089 21.2999 3.4 20.868 3.4 20.4177V13.6266C3.4 13.1763 3.22089 12.7445 2.90208 12.4261C2.58327 12.1077 2.15087 11.9288 1.7 11.9288ZM32.3 11.9288C31.8491 11.9288 31.4167 12.1077 31.0979 12.4261C30.7791 12.7445 30.6 13.1763 30.6 13.6266V20.4177C30.6 20.868 30.7791 21.2999 31.0979 21.6182C31.4167 21.9366 31.8491 22.1155 32.3 22.1155C32.7509 22.1155 33.1833 21.9366 33.5021 21.6182C33.8209 21.2999 34 20.868 34 20.4177V13.6266C34 13.1763 33.8209 12.7445 33.5021 12.4261C33.1833 12.1077 32.7509 11.9288 32.3 11.9288ZM25.2705 2.59102C25.3902 2.39775 25.4699 2.18244 25.5047 1.95785C25.5396 1.73327 25.529 1.50398 25.4734 1.28358C25.4179 1.06318 25.3187 0.856159 25.1815 0.674782C25.0444 0.493405 24.8722 0.341368 24.6752 0.227683C24.4781 0.113998 24.2602 0.0409798 24.0344 0.0129565C23.8086 -0.0150669 23.5794 0.00247513 23.3605 0.0645428C23.1416 0.126611 22.9374 0.23194 22.76 0.374288C22.5826 0.516636 22.4356 0.693105 22.3278 0.893233L21.284 2.69798C19.9436 2.06927 18.4809 1.74332 17 1.74332C15.5191 1.74332 14.0564 2.06927 12.716 2.69798L11.6705 0.893233C11.5627 0.693105 11.4157 0.516636 11.2383 0.374288C11.0609 0.23194 10.8567 0.126611 10.6378 0.0645428C10.4189 0.00247513 10.1897 -0.0150669 9.96388 0.0129565C9.73805 0.0409798 9.52016 0.113998 9.32311 0.227683C9.12607 0.341368 8.95388 0.493405 8.81676 0.674782C8.67965 0.856159 8.58039 1.06318 8.52487 1.28358C8.46935 1.50398 8.4587 1.73327 8.49356 1.95785C8.52842 2.18244 8.60808 2.39775 8.7278 2.59102L9.9042 4.62496C8.92222 5.57185 8.14127 6.70658 7.60794 7.96144C7.07461 9.21631 6.79984 10.5656 6.8 11.9288V25.5111C6.8 25.9614 6.97911 26.3932 7.29792 26.7116C7.61673 27.03 8.04913 27.2089 8.5 27.2089H11.9V32.3022C11.9 32.7525 12.0791 33.1843 12.3979 33.5027C12.7167 33.8211 13.1491 34 13.6 34C14.0509 34 14.4833 33.8211 14.8021 33.5027C15.1209 33.1843 15.3 32.7525 15.3 32.3022V27.2089H18.7V32.3022C18.7 32.7525 18.8791 33.1843 19.1979 33.5027C19.5167 33.8211 19.9491 34 20.4 34C20.8509 34 21.2833 33.8211 21.6021 33.5027C21.9209 33.1843 22.1 32.7525 22.1 32.3022V27.2089H25.5C25.9509 27.2089 26.3833 27.03 26.7021 26.7116C27.0209 26.3932 27.2 25.9614 27.2 25.5111V11.9288C27.1999 10.5655 26.9249 9.21611 26.3913 7.96124C25.8577 6.70637 25.0764 5.57171 24.0941 4.62496L25.2705 2.59102ZM23.8 23.8133H10.2V15.3244H23.8V23.8133ZM10.2 11.9288C10.2 10.1277 10.9164 8.40035 12.1917 7.12677C13.4669 5.85318 15.1965 5.13769 17 5.13769C18.8035 5.13769 20.5331 5.85318 21.8083 7.12677C23.0836 8.40035 23.8 10.1277 23.8 11.9288H10.2Z" fill="#58A57B"/>
</svg>
