<?xml version="1.0" encoding="utf-8"?>
<!-- Generator: Adobe Illustrator 24.1.0, SVG Export Plug-In . SVG Version: 6.00 Build 0)  -->
<svg version="1.1" id="Layer_1" xmlns="http://www.w3.org/2000/svg" xmlns:xlink="http://www.w3.org/1999/xlink" x="0px" y="0px"
	 viewBox="0 0 33 34" style="enable-background:new 0 0 33 34;" xml:space="preserve">
<desc>Created with Sketch.</desc>
<g id="Combined-Shape">
	<path id="path-1_1_" d="M19,6c0,0,0.1,0,0.1,0L19,6c0.1,0,0.1,0,0.2,0c0,0,0.1,0,0.1,0c0,0,0,0,0,0c0,0,0.1,0,0.1,0c0,0,0,0,0,0
		c0,0,0.1,0,0.1,0c0,0,0,0,0,0c0,0,0.1,0,0.1,0.1c0,0,0,0,0,0c0,0,0,0,0,0l0.1,0.1l0,0l6,6c0,0,0.1,0.1,0.1,0.1l-0.1-0.1
		c0,0,0.1,0.1,0.1,0.1c0,0,0,0.1,0.1,0.1c0,0,0,0,0,0c0,0,0,0.1,0,0.1c0,0,0,0,0,0c0,0,0,0.1,0,0.1c0,0,0,0,0,0c0,0,0,0.1,0,0.1
		c0,0,0,0,0,0c0,0,0,0.1,0,0.1l0,0v12c0,1.7-1.3,3-3,3H11c-1.7,0-3-1.3-3-3V9c0-1.7,1.3-3,3-3H19z M18,8h-7c-0.6,0-1,0.4-1,1v16
		c0,0.6,0.4,1,1,1h12c0.6,0,1-0.4,1-1V14h-5c-0.5,0-0.9-0.4-1-0.9l0-0.1V8z M21,21c0.6,0,1,0.4,1,1s-0.4,1-1,1l0,0h-8
		c-0.6,0-1-0.4-1-1s0.4-1,1-1l0,0H21z M21,17c0.6,0,1,0.4,1,1s-0.4,1-1,1l0,0h-8c-0.6,0-1-0.4-1-1s0.4-1,1-1l0,0H21z M15,13
		c0.6,0,1,0.4,1,1s-0.4,1-1,1l0,0h-2c-0.6,0-1-0.4-1-1s0.4-1,1-1l0,0H15z M20,9.4V12h2.6L20,9.4z" fill="#fff" />
</g>
</svg>
