<svg width="35" height="34" viewBox="0 0 35 34" fill="none" xmlns="http://www.w3.org/2000/svg">
<path d="M23.6482 11.9311C23.8652 12.0122 24.0957 12.0527 24.3279 12.0508H31.2996C31.7619 12.0508 32.2052 11.8707 32.532 11.5501C32.8589 11.2295 33.0425 10.7947 33.0425 10.3413C33.0425 9.88796 32.8589 9.45316 32.532 9.13258C32.2052 8.812 31.7619 8.6319 31.2996 8.6319H28.5284L34.2626 3.00784C34.445 2.85459 34.5932 2.66601 34.6978 2.45393C34.8024 2.24184 34.8612 2.01084 34.8705 1.77542C34.8798 1.54 34.8393 1.30524 34.7517 1.08587C34.6641 0.866508 34.5312 0.667277 34.3613 0.500684C34.1914 0.334091 33.9883 0.203732 33.7647 0.117791C33.541 0.0318493 33.3016 -0.00781951 33.0616 0.00127385C32.8216 0.0103672 32.586 0.0680265 32.3698 0.170633C32.1536 0.273239 31.9613 0.418577 31.8051 0.597524L26.0709 6.20449V3.48648C26.0709 3.03311 25.8872 2.5983 25.5604 2.27772C25.2335 1.95714 24.7902 1.77704 24.3279 1.77704C23.8657 1.77704 23.4224 1.95714 23.0955 2.27772C22.7686 2.5983 22.585 3.03311 22.585 3.48648V10.3242C22.583 10.552 22.6244 10.7781 22.707 10.9909C22.7927 11.2009 22.92 11.3921 23.0815 11.5535C23.2431 11.7149 23.4357 11.8433 23.6482 11.9311ZM30.4282 18.7689C30.0447 18.7689 29.6438 18.6492 29.2604 18.5637C28.4839 18.3959 27.7208 18.1731 26.9772 17.8971C26.1686 17.6086 25.2798 17.6235 24.4819 17.9391C23.6839 18.2547 23.0331 18.8486 22.6547 19.6065L22.2713 20.3758C20.5737 19.4495 19.0138 18.2992 17.6351 16.9569C16.2665 15.6047 15.0936 14.0747 14.1493 12.4098L14.8813 11.9311C15.6541 11.56 16.2596 10.9217 16.5814 10.1391C16.9031 9.35645 16.9184 8.48473 16.6242 7.6917C16.3475 6.96078 16.1204 6.21269 15.9445 5.45234C15.8574 5.07626 15.7876 4.68309 15.7354 4.28992C15.5237 3.08582 14.8807 1.99541 13.9221 1.21504C12.9634 0.434677 11.7523 0.0156455 10.5066 0.0334085H5.27785C4.5267 0.0264912 3.78286 0.178392 3.09695 0.47877C2.41104 0.779148 1.79917 1.22095 1.303 1.7741C0.806828 2.32725 0.437998 2.97876 0.221621 3.68428C0.00524391 4.38981 -0.0536008 5.13277 0.0490931 5.8626C0.977612 13.0241 4.31232 19.6781 9.52647 24.7735C14.7406 29.8689 21.537 33.1154 28.8421 34H29.5044C30.7897 34.0018 32.0306 33.5393 32.9902 32.7008C33.5416 32.2171 33.9821 31.6242 34.2826 30.9612C34.583 30.2981 34.7366 29.5801 34.7332 28.8546V23.7263C34.7118 22.5389 34.2709 21.3955 33.4858 20.4914C32.7007 19.5873 31.62 18.9785 30.4282 18.7689ZM31.2996 29.0255C31.2993 29.2682 31.2463 29.5081 31.1441 29.7292C31.0419 29.9502 30.8929 30.1474 30.707 30.3076C30.5123 30.4725 30.2845 30.5957 30.0384 30.6693C29.7923 30.7429 29.5333 30.7653 29.2778 30.735C22.7504 29.9141 16.6874 26.9853 12.0451 22.4105C7.4028 17.8357 4.44545 11.8753 3.6395 5.46943C3.61176 5.21903 3.63608 4.96571 3.71097 4.72478C3.78586 4.48385 3.90978 4.26032 4.07523 4.06769C4.23856 3.88534 4.43961 3.7392 4.665 3.63899C4.89039 3.53878 5.13495 3.48679 5.38242 3.48648H10.6112C11.0165 3.47763 11.4123 3.60764 11.7304 3.85413C12.0485 4.10062 12.2691 4.44816 12.3541 4.83694C12.4238 5.30418 12.511 5.76573 12.6155 6.22158C12.8169 7.1227 13.0848 8.00826 13.4173 8.87122L10.9772 9.98235C10.7686 10.0762 10.5809 10.2096 10.425 10.3748C10.269 10.54 10.1479 10.7338 10.0686 10.9451C9.9892 11.1564 9.95317 11.3809 9.96254 11.6058C9.97191 11.8308 10.0265 12.0517 10.1232 12.2559C12.6316 17.5257 16.9506 21.7618 22.3236 24.222C22.7479 24.393 23.2239 24.393 23.6482 24.222C23.8656 24.1457 24.0653 24.0279 24.2359 23.8753C24.4064 23.7227 24.5443 23.5384 24.6417 23.3331L25.7223 20.9399C26.6233 21.2559 27.5429 21.5185 28.4761 21.7262C28.9409 21.8288 29.4114 21.9142 29.8878 21.9826C30.2842 22.066 30.6386 22.2824 30.8899 22.5944C31.1412 22.9064 31.2738 23.2945 31.2648 23.6921L31.2996 29.0255Z" fill="white"/>
</svg>
