<svg width="34" height="34" viewBox="0 0 34 34" fill="none" xmlns="http://www.w3.org/2000/svg">
<path d="M25.1817 6.09082H8.81809C7.31186 6.09082 6.09082 7.31186 6.09082 8.81809V25.1817C6.09082 26.688 7.31186 27.909 8.81809 27.909H25.1817C26.688 27.909 27.909 26.688 27.909 25.1817V8.81809C27.909 7.31186 26.688 6.09082 25.1817 6.09082Z" stroke="#F14F4F" stroke-width="3" stroke-linecap="round" stroke-linejoin="round"/>
<path d="M12.9092 12.9092H21.091V21.091H12.9092V12.9092Z" stroke="#F14F4F" stroke-width="3" stroke-linecap="round" stroke-linejoin="round"/>
<path d="M12.9092 2V6.09091" stroke="#F14F4F" stroke-width="3" stroke-linecap="round" stroke-linejoin="round"/>
<path d="M21.0908 2V6.09091" stroke="#F14F4F" stroke-width="3" stroke-linecap="round" stroke-linejoin="round"/>
<path d="M12.9092 27.9092V32.0001" stroke="#F14F4F" stroke-width="3" stroke-linecap="round" stroke-linejoin="round"/>
<path d="M21.0908 27.9092V32.0001" stroke="#F14F4F" stroke-width="3" stroke-linecap="round" stroke-linejoin="round"/>
<path d="M27.9092 12.9092H32.0001" stroke="#F14F4F" stroke-width="3" stroke-linecap="round" stroke-linejoin="round"/>
<path d="M27.9092 19.7271H32.0001" stroke="#F14F4F" stroke-width="3" stroke-linecap="round" stroke-linejoin="round"/>
<path d="M2 12.9092H6.09091" stroke="#F14F4F" stroke-width="3" stroke-linecap="round" stroke-linejoin="round"/>
<path d="M2 19.7271H6.09091" stroke="#F14F4F" stroke-width="3" stroke-linecap="round" stroke-linejoin="round"/>
</svg>
