<svg width="35" height="35" viewBox="0 0 35 35" fill="none" xmlns="http://www.w3.org/2000/svg">
<path d="M27.6059 0H7.15708C5.2589 0 3.43847 0.754048 2.09626 2.09626C0.754048 3.43847 0 5.2589 0 7.15708V27.6059C0 29.5041 0.754048 31.3245 2.09626 32.6667C3.43847 34.0089 5.2589 34.763 7.15708 34.763H27.6059C29.5041 34.763 31.3245 34.0089 32.6667 32.6667C34.0089 31.3245 34.763 29.5041 34.763 27.6059V7.15708C34.763 5.2589 34.0089 3.43847 32.6667 2.09626C31.3245 0.754048 29.5041 0 27.6059 0ZM14.3142 4.08976H20.4488V10.2244H14.3142V4.08976ZM10.2244 30.6732H7.15708C6.34358 30.6732 5.56339 30.35 4.98816 29.7748C4.41292 29.1996 4.08976 28.4194 4.08976 27.6059V24.5386H10.2244V30.6732ZM20.4488 30.6732H14.3142V24.5386H20.4488V30.6732ZM30.6732 27.6059C30.6732 28.4194 30.35 29.1996 29.7748 29.7748C29.1996 30.35 28.4194 30.6732 27.6059 30.6732H24.5386V24.5386H30.6732V27.6059ZM30.6732 20.4488H4.08976V7.15708C4.08976 6.34358 4.41292 5.56339 4.98816 4.98816C5.56339 4.41292 6.34358 4.08976 7.15708 4.08976H10.2244V12.2693C10.2244 12.8116 10.4398 13.3317 10.8233 13.7152C11.2068 14.0987 11.7269 14.3142 12.2693 14.3142H30.6732V20.4488ZM30.6732 10.2244H24.5386V4.08976H27.6059C28.4194 4.08976 29.1996 4.41292 29.7748 4.98816C30.35 5.56339 30.6732 6.34358 30.6732 7.15708V10.2244Z" fill="white"/>
</svg>
