<svg width="246" height="310" viewBox="0 0 246 310" fill="none" xmlns="http://www.w3.org/2000/svg">
<path d="M119.86 310C70.2872 310 0 300.373 0 286.385C0 270.047 89.5342 267.158 119.86 267.158C154.519 267.158 245.016 270.471 245.016 286.385C245.016 302.298 180.649 310 119.86 310Z" fill="black" fill-opacity="0.1"/>
<path d="M79.0665 285.855C77.156 285.855 75.7637 284.045 76.2533 282.198L98.1087 199.767L103.77 201.295L81.8793 283.692C81.5405 284.967 80.3861 285.855 79.0665 285.855Z" fill="#044F5B"/>
<path d="M178.291 285.855C176.951 285.855 175.78 284.952 175.437 283.657L153.643 201.295L159.304 199.767L181.145 282.145C181.642 284.019 180.23 285.855 178.291 285.855Z" fill="#044F5B"/>
<path d="M96.8729 219.135L95.6262 222.982L167.861 246.392L169.108 242.545L96.8729 219.135Z" fill="#044F5B"/>
<path d="M162.23 219.154L89.9951 242.564L91.2418 246.41L163.477 223L162.23 219.154Z" fill="#044F5B"/>
<path d="M132.526 54.8213C176.737 40.8928 217.534 73.2428 216.097 120.51C215.198 151.063 206.482 187.007 174.671 205.609C112.666 242.002 60.5468 212.258 63.1528 162.835C65.8486 113.411 99.1871 68.9295 125.786 57.4272C127.943 56.4388 130.279 55.63 132.526 54.8213Z" fill="#10727D"/>
<path d="M122.012 75.8485C148.611 61.7403 176.737 71.8048 184.286 97.5051C186.892 106.491 188.24 117.814 186.353 131.473C180.691 172.27 158.855 188.085 126.685 191.59C94.4245 195.095 76.632 182.514 75.1043 162.026C73.5767 141.627 92.178 94.8991 117.249 78.6342C118.867 77.6458 120.484 76.7472 122.012 75.8485Z" fill="#044F5B"/>
<path d="M56.3263 170.576L42.056 215.139L46.4849 223.68L52.8782 220.373C52.8782 220.373 76.4086 202.72 73.4862 179.836C70.6109 156.893 56.3263 170.576 56.3263 170.576Z" fill="#F5BE86"/>
<path d="M122.67 142.735L57.9359 163.919C58.4413 176.563 61.9145 183.057 73.1675 193.694L112.77 182.047L130.96 165.766L122.67 142.735Z" fill="#282467"/>
<path d="M52.8656 220.266C52.8656 220.266 52.8225 227.707 50.5156 229.771C38.2221 228.619 27.9765 224.131 22.6875 220.252C18.5955 217.316 24.1867 209.98 29.9628 212.01C35.7388 214.041 40.2994 215.89 42.7352 213.54C44.0196 218.436 48.8759 220.032 52.8656 220.266Z" fill="#F14F4F"/>
<path d="M75.3918 186.292C72.5505 192.619 80.7495 233.785 80.7495 233.785L86.5327 236.113L91.1738 229.068C91.1738 229.068 104.981 206.838 94.0046 188.02C89.5647 180.472 96.4265 167.7 84.3711 174.886C79.2045 177.966 77.0911 182.509 75.3918 186.292Z" fill="#F5BE86"/>
<path d="M133.805 153.658C133.805 153.658 91.3392 159.082 74.1299 179.254C81.8318 195.62 98.6796 198.027 98.6796 198.027L139.586 183.191C151.111 177.813 153.033 170.718 149.345 151.666L133.805 153.658Z" fill="#2A2A76"/>
<path d="M91.3713 228.725C91.3713 228.725 96.7287 233.259 96.8499 236.19C88.5911 244.43 79.143 249.203 73.0887 250.715C68.4491 251.86 66.562 243.464 71.4715 240.448C76.3809 237.433 80.5891 235.296 80.3429 232.108C84.7368 234.046 88.832 231.474 91.3713 228.725Z" fill="#F14F4F"/>
<path d="M113.795 86.9178L113.213 76.0026L126.902 80.4813L128.177 88.7023L133.867 96.3119L115.943 102.713L106.361 93.2347L113.795 86.9178Z" fill="#F5BE86"/>
<path d="M106.997 96.5737C106.997 96.5737 122.943 126.627 95.9998 146.634C79.9023 158.601 69.6573 158.351 69.6573 158.351C69.6573 158.351 69.5055 160.711 66.7253 163.081C65.4698 164.184 60.3813 166.568 59.182 166.299C57.1927 165.794 57.4842 160.518 56.9185 158.937C55.832 155.922 55.2169 157.318 54.2269 155.736C53.1696 154.046 60.4121 150.588 64.0657 152.096C68.0873 153.729 83.0189 142.041 86.6459 133.659C88.0308 130.458 87.9885 118.75 85.8924 108.951C87.094 97.816 107.457 96.5121 107.457 96.5121" fill="#F5BE86"/>
<path d="M65.8159 154.076L41.6379 151.976C40.8181 151.905 40.268 152.799 40.7012 153.499L51.3758 170.736C51.5578 171.029 51.8785 171.208 52.224 171.209L83.5556 171.27C84.4863 171.272 84.9145 170.113 84.2063 169.509L66.3781 154.311C66.2197 154.176 66.0232 154.094 65.8159 154.076Z" fill="#C0C0C0"/>
<path d="M64.7184 154.947L43.4045 153.096L52.8121 168.408L80.7075 168.656L64.7184 154.947Z" fill="#ECECEC"/>
<path d="M82.4772 120.571C82.4772 120.571 82.6402 113.017 84.0575 107.825C85.4748 102.633 91.5754 88.0214 103.91 89.0925C113.711 93.7348 108.878 105.805 108.878 105.805L101.344 118.648L92.4411 122.566L82.4772 120.571Z" fill="#CB4B4B"/>
<path d="M111.274 89.3001C111.274 89.3001 98.149 85.0166 93.3973 100.422C87.008 121.138 95.6264 145.478 98.9915 151.661C102.357 157.845 124.032 159.344 152.544 151.721C147.62 140.582 148.935 121.033 148.935 121.033C148.935 121.033 153.918 95.375 141.896 91.9592C129.868 88.6193 128.184 88.6261 128.184 88.6261C128.184 88.6261 125.712 95.0679 118.94 94.6329C112.175 94.1219 113.891 86.6963 113.891 86.6963L111.274 89.3001Z" fill="#F14F4F"/>
<path d="M103.366 89.8378C99.1009 98.4192 89.9461 131.595 114.754 156.932C100.927 155.808 96.3474 154.798 92.1573 152.828C91.5986 146.046 83.9921 121.744 95.2343 94.4874C98.1947 87.3101 104.989 89.3495 104.989 89.3495C103.428 90.5911 104.214 87.9987 103.366 89.8378Z" fill="#CB4B4B"/>
<path d="M92.1188 47.9066C92.1188 47.9066 83.2235 65.1204 91.8031 78.926C100.314 92.7647 111.507 94.2357 127.931 81.7765C144.321 69.2486 141.039 63.2991 141.039 63.2991L119.227 36.7399L92.1188 47.9066Z" fill="#F5BE86"/>
<path d="M82.1925 52.5924C76.4113 45.1377 81.5842 32.6727 89.8457 36.3137C89.8457 36.3137 85.2968 30.7194 91.4434 25.7359C97.59 20.7524 103.881 23.9876 104.657 26.659C107.16 23.5957 110.615 24.9795 113.261 28.0212C114.934 25.695 117.478 22.1892 123.372 24.5999C129.198 27.0436 128.02 30.4003 128.02 30.4003C128.02 30.4003 138.244 28.4468 139.756 40.7439C146.252 41.7662 151.298 52.6186 145.831 59.897C146.564 63.1814 145.643 74.1107 137.225 78.2403C128.808 82.37 129.277 80.7069 129.277 80.7069C129.277 80.7069 138.282 73.9271 135.573 70.5777C133.433 67.8849 128.98 67.0651 125.75 73.0148C124.028 76.2948 122.953 75.2892 122.364 73.7117C121.676 71.9281 121.878 69.8857 122.859 68.2306C123.383 67.3865 124.01 66.5781 124.768 66.0445C122.727 63.5578 122.251 61.3343 123.437 59.5801C119.652 59.623 120.36 55.8157 120.36 55.8157C120.36 55.8157 115.017 57.3684 115.216 53.3827C112.119 55.2093 106.753 53.8978 103.783 51.9421C99.4221 53.9534 98.1274 53.899 96.3125 52.2341C94.9938 53.7135 92.831 54.6683 90.9126 55.2519C87.6586 56.2237 84.1975 55.1807 82.1925 52.5924Z" fill="#634632"/>
<path d="M139.695 92.5487C139.695 92.5487 166.989 114.479 168.858 148.021C169.939 168.033 170.138 169.929 170.138 169.929C170.138 169.929 171.982 171.299 172.457 174.959C172.707 176.619 171.926 179.26 170.973 180.111C169.432 181.498 166.177 181.594 164.503 181.125C161.378 180.41 160.854 179.652 160.368 177.496C159.361 176.804 158.428 173.315 161.707 171.102C167.01 167.435 146.322 126.006 137.634 118.853C128.945 111.699 139.734 92.0389 139.734 92.0389" fill="#F5BE86"/>
<path d="M145.632 94.9473C149.206 99.2179 159.102 111.181 161.265 116.473C151.36 119.961 144.485 131.747 144.485 131.747L129.93 115.842C129.93 115.842 119.538 105.004 129.606 94.861C136.448 88.0294 145.161 94.3988 145.632 94.9473Z" fill="#F14F4F"/>
<path d="M106.372 80.2835C106.109 80.1984 105.827 80.3423 105.742 80.605C105.657 80.8677 105.801 81.1497 106.064 81.2348L106.372 80.2835ZM110.908 76.6314C110.828 76.3671 110.549 76.2177 110.284 76.2977C110.02 76.3777 109.871 76.6568 109.951 76.9211L110.908 76.6314ZM106.064 81.2348C107.293 81.6332 108.711 81.1718 109.695 80.3246C110.692 79.4666 111.356 78.1129 110.908 76.6314L109.951 76.9211C110.253 77.9208 109.83 78.8885 109.043 79.5667C108.243 80.2556 107.179 80.5451 106.372 80.2835L106.064 81.2348Z" fill="black"/>
<path d="M99.6207 66.8978C99.5119 66.644 99.218 66.5264 98.9642 66.6352C98.7104 66.744 98.5928 67.0379 98.7016 67.2917L99.6207 66.8978ZM103.793 67.9762C104.014 67.8105 104.059 67.4971 103.893 67.2762C103.728 67.0552 103.414 67.0105 103.193 67.1762L103.793 67.9762ZM98.7016 67.2917C99.0402 68.0819 99.9452 68.548 100.856 68.6844C101.796 68.8251 102.899 68.6471 103.793 67.9762L103.193 67.1762C102.548 67.6605 101.725 67.8034 101.004 67.6954C100.254 67.5831 99.7634 67.2309 99.6207 66.8978L98.7016 67.2917Z" fill="black"/>
<path d="M91.4376 66.4164C91.3288 66.1626 91.0349 66.0451 90.7811 66.1538C90.5273 66.2626 90.4097 66.5565 90.5185 66.8104L91.4376 66.4164ZM95.6103 67.4948C95.8312 67.3291 95.876 67.0157 95.7103 66.7948C95.5446 66.5739 95.2312 66.5291 95.0103 66.6948L95.6103 67.4948ZM90.5185 66.8104C90.8571 67.6005 91.7621 68.0666 92.673 68.203C93.6125 68.3437 94.7157 68.1657 95.6103 67.4948L95.0103 66.6948C94.3646 67.1791 93.5423 67.322 92.8211 67.214C92.0713 67.1017 91.5803 66.7495 91.4376 66.4164L90.5185 66.8104Z" fill="black"/>
</svg>
