<svg width="27" height="34" viewBox="0 0 27 34" fill="none" xmlns="http://www.w3.org/2000/svg">
<path d="M13.5 18.6992C13.0524 18.6992 12.6232 18.8783 12.3068 19.1971C11.9903 19.516 11.8125 19.9484 11.8125 20.3993V25.4996C11.8125 25.9504 11.9903 26.3829 12.3068 26.7017C12.6232 27.0205 13.0524 27.1996 13.5 27.1996C13.9476 27.1996 14.3768 27.0205 14.6932 26.7017C15.0097 26.3829 15.1875 25.9504 15.1875 25.4996V20.3993C15.1875 19.9484 15.0097 19.516 14.6932 19.1971C14.3768 18.8783 13.9476 18.6992 13.5 18.6992ZM21.9375 11.8988H8.4375V8.49865C8.43504 7.48912 8.73001 6.50156 9.28506 5.66104C9.84011 4.82052 10.6303 4.16486 11.5555 3.7771C12.4807 3.38933 13.4993 3.2869 14.4823 3.48279C15.4653 3.67867 16.3685 4.16405 17.0775 4.87746C17.7119 5.53041 18.1657 6.33924 18.3937 7.22359C18.4492 7.44015 18.5463 7.64359 18.6798 7.82231C18.8132 8.00103 18.9803 8.15152 19.1715 8.26518C19.3627 8.37885 19.5742 8.45346 19.794 8.48477C20.0138 8.51608 20.2375 8.50347 20.4525 8.44765C20.6675 8.39184 20.8694 8.29391 21.0468 8.15947C21.2242 8.02503 21.3736 7.85671 21.4864 7.66411C21.5992 7.47151 21.6733 7.25841 21.7043 7.03697C21.7354 6.81554 21.7229 6.5901 21.6675 6.37354C21.2831 4.90262 20.5206 3.55978 19.4569 2.48033C18.2759 1.29429 16.7726 0.487381 15.1368 0.161485C13.501 -0.16441 11.806 0.0053271 10.2658 0.649263C8.7257 1.2932 7.40948 2.38246 6.48339 3.7795C5.55729 5.17654 5.06285 6.81871 5.0625 8.49865V11.8988C3.71984 11.8988 2.43217 12.4362 1.48277 13.3927C0.533369 14.3492 0 15.6464 0 16.9991V28.8997C0 30.2524 0.533369 31.5497 1.48277 32.5062C2.43217 33.4627 3.71984 34 5.0625 34H21.9375C23.2802 34 24.5678 33.4627 25.5172 32.5062C26.4666 31.5497 27 30.2524 27 28.8997V16.9991C27 15.6464 26.4666 14.3492 25.5172 13.3927C24.5678 12.4362 23.2802 11.8988 21.9375 11.8988ZM23.625 28.8997C23.625 29.3506 23.4472 29.783 23.1307 30.1019C22.8143 30.4207 22.3851 30.5998 21.9375 30.5998H5.0625C4.61495 30.5998 4.18573 30.4207 3.86926 30.1019C3.55279 29.783 3.375 29.3506 3.375 28.8997V16.9991C3.375 16.5482 3.55279 16.1158 3.86926 15.797C4.18573 15.4781 4.61495 15.299 5.0625 15.299H21.9375C22.3851 15.299 22.8143 15.4781 23.1307 15.797C23.4472 16.1158 23.625 16.5482 23.625 16.9991V28.8997Z" fill="white"/>
</svg>
