<svg width="177" height="53" viewBox="0 0 177 53" fill="none" xmlns="http://www.w3.org/2000/svg">
<path fill-rule="evenodd" clip-rule="evenodd" d="M122 26.6285H108.934C106.106 26.6285 103.517 25.5143 101.701 23.7143C99.8262 21.9429 98.6655 19.4572 98.6655 16.7429V0H100.808V16.7715C100.808 18.9142 101.701 20.8571 103.19 22.2858C104.648 23.6857 106.702 24.5715 108.934 24.5715H122V26.6285ZM114.887 12.4857H112.565V10.4286H114.887V12.4857ZM91.3735 24.6572C92.6235 23.4571 93.4271 21.7715 93.4271 19.9429V11.1429H91.2842V19.9143C91.2842 21.1714 90.7484 22.3429 89.8555 23.1714C88.9924 24 87.7721 24.5429 86.4624 24.5429H74.3191V26.6H86.4624C88.3673 26.6285 90.1234 25.8571 91.3735 24.6572ZM67.92 26.6285H54.2586C51.4311 26.6285 48.8714 25.5143 46.9666 23.7143C46.1927 22.9429 45.5379 22.0858 45.032 21.1143C44.5558 22.0858 43.8711 22.9714 43.0974 23.7143C41.2519 25.5143 38.6626 26.6285 35.8351 26.6285H6.96462C5.05976 26.6285 3.30373 25.8571 2.05368 24.6572C0.773847 23.4571 0 21.7715 0 19.9429V17.6857C0 15.8285 0.773847 14.1714 2.05368 12.9714C3.30373 11.7429 5.05976 11 6.96462 11H16.727V13.0286H6.99438C5.68479 13.0286 4.4645 13.5714 3.60136 14.4C2.70846 15.2286 2.17273 16.3999 2.17273 17.6572V19.9143C2.17273 21.1714 2.73822 22.3429 3.60136 23.1714C4.4645 24.0285 5.68479 24.5429 6.99438 24.5429H35.8648C38.0971 24.5429 40.1209 23.6857 41.6092 22.2572C43.0675 20.8571 43.9903 18.8857 43.9903 16.7429V11.1429H46.1331V16.7715C46.1331 18.9142 47.0261 20.8571 48.5142 22.2858C49.9726 23.6857 52.0263 24.5715 54.2586 24.5715H67.92V26.6285ZM54.9432 13.1428H67.9199V11.0857H54.9432V13.1428ZM21.9059 28.9428H24.2274V31H21.9059V28.9428Z" fill="#6D6E71"/>
<path fill-rule="evenodd" clip-rule="evenodd" d="M99.7316 37.4331C98.7789 36.5339 97.4988 36 96.0698 36H89.2822C87.8532 36 86.573 36.5619 85.6204 37.4331C84.6677 38.3322 84.1021 39.5406 84.1021 40.8893V53H86.2456V46.1438H99.1064V53H101.25V40.8893C101.25 39.5406 100.684 38.3041 99.7316 37.4331ZM120.571 44.8513C120.511 44.7951 120.445 44.7389 120.378 44.6827C120.311 44.6265 120.244 44.5703 120.184 44.5141C120.333 44.4017 120.452 44.2892 120.571 44.1768C121.434 43.362 122 42.21 122 40.9454V40.6083C122 39.3439 121.464 38.2198 120.571 37.3769C119.708 36.5619 118.487 36.0281 117.147 36.0281H107.115H106.043V37.0398V51.9885V53H107.115H117.147C118.487 53 119.708 52.4942 120.571 51.6512C121.434 50.8363 122 49.6844 122 48.4198V48.0826C122 46.8181 121.464 45.6942 120.571 44.8513ZM119.856 40.9454C119.856 41.6479 119.559 42.2943 119.053 42.7438C118.547 43.2215 117.892 43.5025 117.147 43.5025H108.187V38.0513H117.147C117.892 38.0513 118.576 38.3322 119.053 38.8099C119.559 39.2876 119.856 39.9058 119.856 40.6083V40.9454ZM119.053 50.2182C119.559 49.7686 119.856 49.1223 119.856 48.4198V48.0546C119.856 47.3521 119.559 46.7338 119.053 46.2562C118.576 45.7785 117.892 45.4975 117.147 45.4975H108.187V50.9768H117.147C117.892 50.9768 118.547 50.6959 119.053 50.2182ZM86.2456 44.1206H99.1064V40.8893C99.1064 40.1025 98.7492 39.372 98.2133 38.8661C97.6477 38.3322 96.9034 38.0232 96.0698 38.0232H89.2822C88.4485 38.0232 87.6744 38.3603 87.1387 38.8661C86.573 39.4001 86.2456 40.1025 86.2456 40.8893V44.1206ZM2.14349 36.0281H0V53H2.14349V39.0909L15.0044 52.9719V53H17.148V36.0281H15.0044V49.9091L2.14349 36.0281ZM22.2386 40.8893C22.2386 39.5406 22.8043 38.3322 23.757 37.4331C24.6799 36.5339 25.9898 36 27.4188 36H34.2065C35.6354 36 36.9155 36.5339 37.8682 37.4331C38.7911 38.3322 39.3865 39.5406 39.3865 40.8893V53H37.2431V46.1438H24.3822V53H22.2386V40.8893ZM24.3822 40.8893C24.3822 40.1025 24.7393 39.4001 25.2753 38.8661C25.8112 38.3603 26.5851 38.0232 27.4188 38.0232H34.2065C35.04 38.0232 35.7842 38.3322 36.3499 38.8661C36.8858 39.372 37.2431 40.1025 37.2431 40.8893V44.1206H24.3822V40.8893ZM45.0727 36H46.1445H57.0406C58.4696 36 59.7497 36.5339 60.7024 37.4331C61.6252 38.3322 62.2207 39.5406 62.2207 40.8893V41.2545C62.2207 42.6033 61.6549 43.8115 60.7024 44.7108C60.5543 44.8506 60.3766 44.9903 60.199 45.1301L60.1989 45.1301L60.1989 45.1301L60.1962 45.1323L60.1989 45.1344L60.1989 45.1344L60.199 45.1345C60.3766 45.2742 60.5543 45.414 60.7024 45.5537C61.6252 46.4528 62.2207 47.6612 62.2207 49.0099V53H60.0772V49.0099C60.0772 48.2231 59.7198 47.4926 59.1841 46.9868C58.6184 46.4809 57.8741 46.1438 57.0406 46.1438H47.2162V53H45.0727V37.0117V36ZM47.2162 38.0232H57.0406C57.8741 38.0232 58.6184 38.3322 59.1841 38.8661C59.7198 39.372 60.0772 40.1025 60.0772 40.8893V41.2545C60.0772 42.0414 59.7497 42.7438 59.1841 43.2777C58.6482 43.7834 57.8741 44.1206 57.0406 44.1206H47.2162V38.0232ZM65.4359 36H80.4402V38.0232H74.0098V53H71.8663V38.0232H65.4359V36Z" fill="#6D6E71"/>
<path fill-rule="evenodd" clip-rule="evenodd" d="M167.976 13.3294L177 22.158V39.7861C174.826 41.9123 172.66 44.0319 170.494 46.1512C168.163 48.4318 165.833 50.712 163.494 53H154.5H145.506L132 39.7861V22.158L141.024 13.3294H149.634L145.388 9.20361V0L150.018 4.52968L154.5 0.173109L158.983 4.52968L163.613 0V9.20361L159.366 13.3294H167.976ZM172.636 38.6321V23.6581L165.263 16.4453L170.247 23.6581V38.6321L161.106 49.9129C164.283 46.8037 167.482 43.6746 170.667 40.5586C171.324 39.9158 171.98 39.2735 172.636 38.6321Z" fill="#D51920"/>
</svg>
