<svg id="Layer_1" data-name="Layer 1" xmlns="http://www.w3.org/2000/svg" viewBox="0 0 180 82.09"><defs><style>.cls-1{fill:#d8232a;}.cls-2{fill:#f5f8fa;}.cls-3{fill:#fff;}</style></defs><polygon class="cls-1" points="171.5 18.39 167.41 26.07 175.58 22.64 171.5 18.39"/><polygon class="cls-1" points="127.7 5.32 121.41 8.99 132.69 17 127.7 5.32"/><polygon class="cls-1" points="129.25 20.51 124.11 17 122.39 20.51 129.25 20.51"/><path class="cls-1" d="M170.85,34.51l-.39-.12a5.32,5.32,0,0,0-.79-.18,14.59,14.59,0,0,1-2.29-.62l-.6-.22c-.13-.07-.26-.14-.4-.2a22.92,22.92,0,0,1-8.81-7.53c-.08-.1-.15-.21-.24-.31-.55-2.71-2.72-8-7.25-9.57-6.88-2.39-13.42,3.38-18,11.38H19.78A17.83,17.83,0,0,0,2,45H2A17.83,17.83,0,0,0,19.78,62.81h106a17.92,17.92,0,0,0,4.11-.5,9.66,9.66,0,0,0,3.36,2c2,.7,6,1.24,10.62-2.35a8,8,0,0,0,4,6.4l3.51,2a7.88,7.88,0,0,0,1.45.66,8.48,8.48,0,0,0,10.32-4.15l2.55-5c3.67-1,7-4.78,9.1-10.78C177.6,42.84,176.08,36.33,170.85,34.51Z"/><path class="cls-2" d="M156.18,54.72l-2.8,4.91-.59-.36a1.8,1.8,0,0,0-2.49.66l-.28.48a2,2,0,0,0,.76,2.78l3.51,2a2.49,2.49,0,0,0,3.47-1l4.11-8.05-.67-.25A24.8,24.8,0,0,0,156.18,54.72Z"/><path class="cls-2" d="M168.89,40.15a.61.61,0,0,0-.13,0h0a21,21,0,0,1-3.8-1.06,8.9,8.9,0,0,1,0,5.27,10.76,10.76,0,0,0-1-5.72,28.85,28.85,0,0,1-11.17-9.49,25.48,25.48,0,0,1-1,9.49,32.93,32.93,0,0,1-4,8.68c-.57.86-1,1.47-1.25,1.77.28-.53.55-1.07.81-1.63.63-1.33,1.22-2.75,1.76-4.23a45.72,45.72,0,0,0,1.83-6.29,26.46,26.46,0,0,0,.6-10.31c-.29-1.54-1.64-4.59-3.38-5.2-4.2-1.46-10.52,5.7-14.1,16S131,57.21,135.16,58.67c1.68.58,3.7-.22,5.75-2,0,0,10.62-5.73,22.37-.57h0l.07,0c1.64.57,4.21-2.53,5.74-6.93S170.53,40.72,168.89,40.15ZM144.7,47.43c-2.65,5-5.88,8-8.14,7.2-3-1-3.17-8.42-.36-16.49s7.51-13.76,10.52-12.71c2.14.75,2.84,4.71,2,9.86a37.72,37.72,0,0,1-1.68,6.63A40.2,40.2,0,0,1,144.7,47.43Z"/><path class="cls-2" d="M148,35.66c-2.39-.53-5,1.18-6,4s0,5.85,2.31,6.87l0-.06a33.42,33.42,0,0,0,2.11-4.87,34.57,34.57,0,0,0,1.5-5.88S148,35.68,148,35.66Z"/><path class="cls-3" d="M38.81,42.26l-.32.09-1.42.38-.33.09.08.33a8.44,8.44,0,0,1,.37,2.15A2.31,2.31,0,0,1,37,46.49a.69.69,0,0,1-.62.35c-.62,0-1-.41-1-1.22L35.2,43.7l0-.35-.36,0-1.4.17-.32,0,0,.32c0,.7.08,1.19.08,1.49a1.72,1.72,0,0,1-.27,1.1,1.2,1.2,0,0,1-1,.33c-.69,0-1.07-.41-1.13-1.22l-.14-1.92,0-.35-.36,0-1.4.17-.32,0,0,.32c.06.68.09,1.18.09,1.49a1.37,1.37,0,0,1-.37,1.13,2.2,2.2,0,0,1-1.34.3h-.62a.78.78,0,0,1-.35-.07,1,1,0,0,1-.35-.26,2.57,2.57,0,0,1-.41-.58c-.14-.27-.29-.61-.45-1l-1.77-4.51-.12-.33-.33.15-1.37.63-.3.14.13.31,1,2.39c.24.55.42,1,.55,1.39a3.7,3.7,0,0,1,.2.67c0,.72-.87,1.07-2.61,1.07a6.74,6.74,0,0,1-1.68-.23l-.43-.1v2.26l.26.06a8.7,8.7,0,0,0,2,.22,5.36,5.36,0,0,0,3.76-1.17,2.74,2.74,0,0,0,2.27,1.18H27a3.52,3.52,0,0,0,2.7-.95,2.71,2.71,0,0,0,2.28.95,3.07,3.07,0,0,0,2.29-1,2.47,2.47,0,0,0,2.1,1,2.83,2.83,0,0,0,1.39-.33,2.43,2.43,0,0,0,.93-.87,4.46,4.46,0,0,0,.49-1.23,6.5,6.5,0,0,0,.16-1.45,8.72,8.72,0,0,0-.43-2.59Z"/><polygon class="cls-3" points="32.24 42.13 32.36 42.24 32.47 42.13 33.59 41 33.7 40.89 33.59 40.78 32.47 39.66 32.36 39.56 32.24 39.66 31.13 40.78 31.02 40.89 31.13 41 32.24 42.13"/><polygon class="cls-3" points="33.67 39.91 33.78 40.02 33.89 39.91 35.02 38.78 35.13 38.67 35.02 38.56 33.89 37.44 33.78 37.34 33.67 37.44 32.55 38.56 32.45 38.67 32.55 38.78 33.67 39.91"/><polygon class="cls-3" points="34.01 40.78 33.91 40.89 34.01 41 35.13 42.13 35.24 42.24 35.35 42.13 36.48 41 36.59 40.89 36.48 40.78 35.35 39.66 35.24 39.56 35.13 39.66 34.01 40.78"/><path class="cls-3" d="M46.93,43.81l-.3.11-1.38.49-.34.12.14.34a8.08,8.08,0,0,1,.47,1.44,6.65,6.65,0,0,1,.16,1.29,3.74,3.74,0,0,1-.46,1.84,3.54,3.54,0,0,1-1.37,1.31,7.72,7.72,0,0,1-2.34.8l-.41.07.15.38.51,1.31.1.26.27-.06a7.62,7.62,0,0,0,4.21-2,5.47,5.47,0,0,0,1.43-3.93,9.2,9.2,0,0,0-.72-3.45Z"/><polygon class="cls-3" points="45.44 42.49 45.55 42.6 45.66 42.49 46.89 41.26 47 41.15 46.89 41.04 45.65 39.8 45.54 39.69 45.43 39.8 44.2 41.03 44.09 41.14 44.2 41.25 45.44 42.49"/><path class="cls-3" d="M54.62,46.1a9.22,9.22,0,0,0-.25-1.16,4.94,4.94,0,0,0-.44-1A5.07,5.07,0,0,0,53.3,43a2.69,2.69,0,0,0-.86-.57,2.74,2.74,0,0,0-1.08-.21,2.6,2.6,0,0,0-1.65.57,3.49,3.49,0,0,0-1.11,1.45,4.87,4.87,0,0,0-.37,1.92,2.64,2.64,0,0,0,.87,2.14,3.87,3.87,0,0,0,2.51.72,7.68,7.68,0,0,0,.85-.07q-.84,2-3.87,2.56l-.41.07.16.38.5,1.31.11.26.27-.06A6.9,6.9,0,0,0,53.3,51.4a6,6,0,0,0,1.4-4.1A9.42,9.42,0,0,0,54.62,46.1Zm-3,.81a1.8,1.8,0,0,1-1-.21.72.72,0,0,1-.3-.63A1.91,1.91,0,0,1,50.61,45a.84.84,0,0,1,.68-.45c.73,0,1.17.75,1.31,2.26A4.27,4.27,0,0,1,51.62,46.91Z"/><path class="cls-3" d="M59.71,43.81l-.31.11L58,44.41l-.34.12.14.34a7.32,7.32,0,0,1,.46,1.44,6,6,0,0,1,.16,1.29,3.38,3.38,0,0,1-1.82,3.15,7.69,7.69,0,0,1-2.35.8l-.4.07L54,52l.51,1.31.1.26.27-.06a7.62,7.62,0,0,0,4.21-2,5.47,5.47,0,0,0,1.43-3.93,9.2,9.2,0,0,0-.72-3.45Z"/><polygon class="cls-3" points="74.68 50.27 74.57 50.16 74.46 50.27 73.23 51.5 73.12 51.62 73.23 51.73 74.47 52.96 74.58 53.07 74.69 52.96 75.92 51.73 76.03 51.62 75.92 51.51 74.68 50.27"/><path class="cls-3" d="M76.85,42l-.31.07-1.36.34-.32.09.08.32a10.27,10.27,0,0,1,.3,2.33,1.85,1.85,0,0,1-.35,1.31,1.61,1.61,0,0,1-1.21.37h-.93a1.21,1.21,0,0,1-.87-.28,1.39,1.39,0,0,1-.38-.89l-.7-5,0-.36-.36.08-1.34.28-.32.07,0,.31,0,.09c-2.84.94-4.25,2.29-4.25,4.07a2.77,2.77,0,0,0,.25,1.22,2.28,2.28,0,0,0,.71.85,3,3,0,0,0,1,.48,4.12,4.12,0,0,0,1.19.17,3.57,3.57,0,0,0,2.1-.67,2.63,2.63,0,0,0,1.07,1.33,3.39,3.39,0,0,0,1.8.45h1a3.52,3.52,0,0,0,2.74-1,4.12,4.12,0,0,0,1-2.87A10,10,0,0,0,77,42.33Zm-8,3.45a1.91,1.91,0,0,1-1.15.35,1.17,1.17,0,0,1-.74-.17.65.65,0,0,1-.22-.54c0-.63.81-1.26,2.43-1.9l.15,1a2,2,0,0,1,0,.43A1,1,0,0,1,68.8,45.47Z"/><path class="cls-3" d="M84.06,44.22l-.17-.13-.16.13a5,5,0,0,0-1.31,1.47A3.73,3.73,0,0,0,82,47.53a1.56,1.56,0,0,0,.34,1,1.22,1.22,0,0,0,1,.4,1.12,1.12,0,0,0,.87-.34,1.28,1.28,0,0,0,.32-.89,1.31,1.31,0,0,0-.22-.78,1,1,0,0,0-.68-.38,1.65,1.65,0,0,1,.29-.77,3.94,3.94,0,0,1,.7-.78l.24-.22-.25-.2Z"/><polygon class="cls-3" points="92.75 50.27 92.64 50.16 92.53 50.27 91.3 51.5 91.19 51.62 91.3 51.73 92.54 52.96 92.65 53.07 92.76 52.96 93.99 51.73 94.1 51.62 93.99 51.51 92.75 50.27"/><polygon class="cls-3" points="104.84 41.2 104.95 41.31 105.06 41.2 106.26 40 106.36 39.89 106.26 39.78 105.06 38.59 104.95 38.49 104.84 38.59 103.66 39.78 103.56 39.89 103.66 40 104.84 41.2"/><polygon class="cls-3" points="102.03 41.2 102.14 41.31 102.25 41.2 103.44 40 103.55 39.89 103.44 39.78 102.25 38.59 102.14 38.49 102.03 38.59 100.84 39.78 100.74 39.89 100.84 40 102.03 41.2"/><path class="cls-3" d="M106.13,45.15a10,10,0,0,0-.42-2.82l-.09-.31-.32.07-1.36.34-.32.09.08.32a10.27,10.27,0,0,1,.3,2.33,3.46,3.46,0,0,1-.08.88.82.82,0,0,1-.33.51,1.24,1.24,0,0,1-.59.23,7.94,7.94,0,0,1-1,.05h-1.14a1.34,1.34,0,0,1-.94-.27,1.45,1.45,0,0,1-.32-.94l-.14-2.1,0-.36-.36,0-1.36.17-.31,0v.32c0,.65.06,1.09.06,1.3a2.17,2.17,0,0,1,0,.38,1.31,1.31,0,0,1-.07.27.81.81,0,0,1-.12.18,1.62,1.62,0,0,1-.39.33,2.82,2.82,0,0,1-.6.27,5.05,5.05,0,0,1-.79.2,8.44,8.44,0,0,1-1,.13c-.37,0-.77,0-1.2,0H92a6.85,6.85,0,0,1-3.32-.62,2,2,0,0,1-1.06-1.83,3.74,3.74,0,0,1,.25-1.34l.12-.31-.32-.12-1.3-.48L86.1,42l-.13.29a5.85,5.85,0,0,0-.48,2.29,4,4,0,0,0,.46,2A3.63,3.63,0,0,0,87.26,48a6.65,6.65,0,0,0,2.08.82,12.94,12.94,0,0,0,2.78.28h1.23a7.66,7.66,0,0,0,4.93-1.32,2.87,2.87,0,0,0,2.48,1.3v0H102a4.4,4.4,0,0,0,3.09-1A3.86,3.86,0,0,0,106.13,45.15Z"/><path class="cls-3" d="M110.07,43.81l-.3.11-1.38.49-.34.12.14.34a7.32,7.32,0,0,1,.46,1.44,6,6,0,0,1,.17,1.29,3.74,3.74,0,0,1-.46,1.84A3.54,3.54,0,0,1,107,50.75a7.69,7.69,0,0,1-2.35.8l-.4.07.15.38.51,1.31.1.26.27-.06a7.62,7.62,0,0,0,4.21-2,5.47,5.47,0,0,0,1.43-3.93,9.2,9.2,0,0,0-.72-3.45Z"/><polygon class="cls-3" points="117.54 41.24 117.65 41.35 117.76 41.24 118.99 40.01 119.1 39.9 118.99 39.79 117.75 38.55 117.64 38.44 117.53 38.55 116.3 39.78 116.19 39.89 116.3 40 117.54 41.24"/><path class="cls-3" d="M119.44,42.33l-.09-.31-.31.07-1.36.34-.32.09.08.32a10.27,10.27,0,0,1,.3,2.33,1.9,1.9,0,0,1-.35,1.31,1.62,1.62,0,0,1-1.21.37h-.88a1.45,1.45,0,0,1-1.08-.32,1.78,1.78,0,0,1-.32-1.24V37.46h-2.11v7.81a4,4,0,0,0,.9,2.84,3.41,3.41,0,0,0,2.48.93h1a3.53,3.53,0,0,0,2.74-1,4.12,4.12,0,0,0,1-2.87A9.66,9.66,0,0,0,119.44,42.33Z"/></svg>